<svg width="100" height="100" viewBox="0 0 100 100" fill="none" xmlns="http://www.w3.org/2000/svg">
<path d="M6.17863 5.21978C6.17863 5.62177 6.50434 5.94748 6.90634 5.94748C7.30833 5.94748 7.63404 5.62177 7.63404 5.21978C7.63404 4.81779 7.30833 4.49208 6.90634 4.49208C6.50434 4.49208 6.17863 4.81779 6.17863 5.21978ZM6.09777 5.21978C6.09777 4.77316 6.45972 4.41122 6.90634 4.41122C7.35295 4.41122 7.7149 4.77316 7.7149 5.21978C7.7149 5.66639 7.35295 6.02834 6.90634 6.02834C6.45972 6.02834 6.09777 5.66639 6.09777 5.21978Z" fill="black"/>
<path d="M5.88763 14.9835C5.88763 15.5461 6.34378 16.0022 6.90634 16.0022C7.4689 16.0022 7.92505 15.5461 7.92505 14.9835C7.92505 14.4209 7.4689 13.9648 6.90634 13.9648C6.34378 13.9648 5.88763 14.4209 5.88763 14.9835ZM5.77435 14.9835C5.77435 14.3584 6.28123 13.8515 6.90634 13.8515C7.53145 13.8515 8.03832 14.3584 8.03832 14.9835C8.03832 15.6086 7.53145 16.1155 6.90634 16.1155C6.28123 16.1155 5.77435 15.6086 5.77435 14.9835Z" fill="black"/>
<path d="M5.59662 24.7472C5.59662 25.4704 6.18321 26.0569 6.90634 26.0569C7.62947 26.0569 8.21605 25.4704 8.21605 24.7472C8.21605 24.0241 7.62947 23.4375 6.90634 23.4375C6.18321 23.4375 5.59662 24.0241 5.59662 24.7472ZM5.45131 24.7472C5.45131 23.9436 6.10273 23.2922 6.90634 23.2922C7.70994 23.2922 8.36137 23.9436 8.36137 24.7472C8.36137 25.5508 7.70994 26.2023 6.90634 26.2023C6.10273 26.2023 5.45131 25.5508 5.45131 24.7472Z" fill="black"/>
<path d="M5.30561 34.511C5.30561 35.395 6.02226 36.1117 6.90634 36.1117C7.79041 36.1117 8.50706 35.395 8.50706 34.511C8.50706 33.6269 7.79041 32.9102 6.90634 32.9102C6.02226 32.9102 5.30561 33.6269 5.30561 34.511ZM5.12788 34.511C5.12788 33.5285 5.92424 32.7325 6.90634 32.7325C7.88843 32.7325 8.68479 33.5285 8.68479 34.511C8.68479 35.4934 7.88843 36.2894 6.90634 36.2894C5.92424 36.2894 5.12788 35.4934 5.12788 34.511Z" fill="black"/>
<path d="M5.01461 44.2747C5.01461 45.3193 5.86169 46.1664 6.90634 46.1664C7.95098 46.1664 8.79806 45.3193 8.79806 44.2747C8.79806 43.23 7.95098 42.383 6.90634 42.383C5.86169 42.383 5.01461 43.23 5.01461 44.2747ZM4.80446 44.2747C4.80446 43.1137 5.74536 42.1728 6.90634 42.1728C8.06731 42.1728 9.00821 43.1137 9.00821 44.2747C9.00821 45.4356 8.06731 46.3766 6.90634 46.3766C5.74536 46.3766 4.80446 45.4356 4.80446 44.2747Z" fill="black"/>
<path d="M4.7236 54.0384C4.7236 55.244 5.70074 56.2211 6.90634 56.2211C8.11193 56.2211 9.08907 55.244 9.08907 54.0384C9.08907 52.8328 8.11193 51.8557 6.90634 51.8557C5.70074 51.8557 4.7236 52.8328 4.7236 54.0384ZM4.48103 54.0384C4.48103 52.6989 5.56687 51.6131 6.90634 51.6131C8.2458 51.6131 9.33164 52.6989 9.33164 54.0384C9.33164 55.3779 8.2458 56.4637 6.90634 56.4637C5.56687 56.4637 4.48103 55.3779 4.48103 54.0384Z" fill="black"/>
<path d="M4.4326 63.8021C4.4326 65.1683 5.54017 66.2759 6.90634 66.2759C8.2725 66.2759 9.38008 65.1683 9.38008 63.8021C9.38008 62.436 8.2725 61.3284 6.90634 61.3284C5.54017 61.3284 4.4326 62.436 4.4326 63.8021ZM4.15761 63.8021C4.15761 62.2842 5.38838 61.0534 6.90634 61.0534C8.4243 61.0534 9.65506 62.2842 9.65506 63.8021C9.65506 65.3201 8.4243 66.5508 6.90634 66.5508C5.38838 66.5508 4.15761 65.3201 4.15761 63.8021Z" fill="black"/>
<path d="M4.14159 73.5659C4.14159 75.093 5.37922 76.3306 6.90634 76.3306C8.43345 76.3306 9.67108 75.093 9.67108 73.5659C9.67108 72.0387 8.43345 70.8011 6.90634 70.8011C5.37922 70.8011 4.14159 72.0387 4.14159 73.5659ZM3.83418 73.5659C3.83418 71.869 5.2095 70.4937 6.90634 70.4937C8.60317 70.4937 9.97849 71.869 9.97849 73.5659C9.97849 75.2627 8.60317 76.638 6.90634 76.638C5.2095 76.638 3.83418 75.2627 3.83418 73.5659Z" fill="black"/>
<path d="M3.85058 83.3296C3.85058 85.0173 5.21865 86.3857 6.90634 86.3857C8.59402 86.3857 9.96209 85.0173 9.96209 83.3296C9.96209 81.6419 8.59402 80.2735 6.90634 80.2735C5.21865 80.2735 3.85058 81.6419 3.85058 83.3296ZM3.51076 83.3296C3.51076 81.4543 5.03101 79.934 6.90634 79.934C8.78166 79.934 10.3019 81.4543 10.3019 83.3296C10.3019 85.2049 8.78166 86.7251 6.90634 86.7251C5.03101 86.7251 3.51076 85.2049 3.51076 83.3296Z" fill="black"/>
<path d="M3.5592 93.0933C3.5592 94.9419 5.05809 96.44 6.90634 96.44C8.75459 96.44 10.2535 94.9419 10.2535 93.0933C10.2535 91.2447 8.75459 89.7466 6.90634 89.7466C5.05809 89.7466 3.5592 91.2447 3.5592 93.0933ZM3.18733 93.0933C3.18733 91.0395 4.85251 89.3743 6.90634 89.3743C8.96016 89.3743 10.6253 91.0395 10.6253 93.0933C10.6253 95.1471 8.96016 96.8123 6.90634 96.8123C4.85251 96.8123 3.18733 95.1471 3.18733 93.0933Z" fill="black"/>
<path d="M16.0057 5.21978C16.0057 5.58668 16.3032 5.88417 16.6701 5.88417C17.037 5.88417 17.3345 5.58668 17.3345 5.21978C17.3345 4.85288 17.037 4.55539 16.6701 4.55539C16.3032 4.55539 16.0057 4.85288 16.0057 5.21978ZM15.9321 5.21978C15.9321 4.81207 16.2624 4.48178 16.6701 4.48178C17.0778 4.48178 17.4081 4.81207 17.4081 5.21978C17.4081 5.62749 17.0778 5.95778 16.6701 5.95778C16.2624 5.95778 15.9321 5.62749 15.9321 5.21978Z" fill="black"/>
<path d="M15.7403 14.9835C15.7403 15.4972 16.1564 15.9133 16.6701 15.9133C17.1838 15.9133 17.5999 15.4972 17.5999 14.9835C17.5999 14.4698 17.1838 14.0537 16.6701 14.0537C16.1564 14.0537 15.7403 14.4698 15.7403 14.9835ZM15.6365 14.9835C15.6365 14.4129 16.0995 13.9499 16.6701 13.9499C17.2407 13.9499 17.7037 14.4129 17.7037 14.9835C17.7037 15.5541 17.2407 16.0171 16.6701 16.0171C16.0995 16.0171 15.6365 15.5541 15.6365 14.9835Z" fill="black"/>
<path d="M15.4744 24.7472C15.4744 25.4078 16.0095 25.9429 16.6701 25.9429C17.3307 25.9429 17.8658 25.4078 17.8658 24.7472C17.8658 24.0867 17.3307 23.5516 16.6701 23.5516C16.0095 23.5516 15.4744 24.0867 15.4744 24.7472ZM15.3413 24.7472C15.3413 24.0134 15.9363 23.4184 16.6701 23.4184C17.4039 23.4184 17.9989 24.0134 17.9989 24.7472C17.9989 25.481 17.4039 26.076 16.6701 26.076C15.9363 26.076 15.3413 25.481 15.3413 24.7472Z" fill="black"/>
<path d="M15.2086 34.511C15.2086 35.318 15.8631 35.9725 16.6701 35.9725C17.4771 35.9725 18.1316 35.318 18.1316 34.511C18.1316 33.7039 17.4771 33.0494 16.6701 33.0494C15.8631 33.0494 15.2086 33.7039 15.2086 34.511ZM15.0461 34.511C15.0461 33.6139 15.7731 32.887 16.6701 32.887C17.5671 32.887 18.2941 33.6139 18.2941 34.511C18.2941 35.408 17.5671 36.1349 16.6701 36.1349C15.7731 36.1349 15.0461 35.408 15.0461 34.511Z" fill="black"/>
<path d="M14.9428 44.2747C14.9428 45.2285 15.7162 46.002 16.6701 46.002C17.624 46.002 18.3974 45.2285 18.3974 44.2747C18.3974 43.3208 17.624 42.5473 16.6701 42.5473C15.7162 42.5473 14.9428 43.3208 14.9428 44.2747ZM14.7509 44.2747C14.7509 43.2148 15.6102 42.3555 16.6701 42.3555C17.73 42.3555 18.5893 43.2148 18.5893 44.2747C18.5893 45.3346 17.73 46.1939 16.6701 46.1939C15.6102 46.1939 14.7509 45.3346 14.7509 44.2747Z" fill="black"/>
<path d="M14.6773 54.0384C14.6773 55.1391 15.5694 56.0312 16.6701 56.0312C17.7708 56.0312 18.6629 55.1391 18.6629 54.0384C18.6629 52.9377 17.7708 52.0456 16.6701 52.0456C15.5694 52.0456 14.6773 52.9377 14.6773 54.0384ZM14.4557 54.0384C14.4557 52.8157 15.447 51.824 16.6701 51.824C17.8932 51.824 18.8845 52.8157 18.8845 54.0384C18.8845 55.2612 17.8932 56.2528 16.6701 56.2528C15.447 56.2528 14.4557 55.2612 14.4557 54.0384Z" fill="black"/>
<path d="M14.4115 63.8021C14.4115 65.0497 15.4226 66.0608 16.6701 66.0608C17.9176 66.0608 18.9287 65.0497 18.9287 63.8021C18.9287 62.5546 17.9176 61.5435 16.6701 61.5435C15.4226 61.5435 14.4115 62.5546 14.4115 63.8021ZM14.1605 63.8021C14.1605 62.4161 15.2841 61.2925 16.6701 61.2925C18.0561 61.2925 19.1797 62.4161 19.1797 63.8021C19.1797 65.1881 18.0561 66.3117 16.6701 66.3117C15.2841 66.3117 14.1605 65.1881 14.1605 63.8021Z" fill="black"/>
<path d="M14.1456 73.5659C14.1456 74.9599 15.2761 76.0903 16.6701 76.0903C18.0641 76.0903 19.1946 74.9599 19.1946 73.5659C19.1946 72.1719 18.0641 71.0414 16.6701 71.0414C15.2761 71.0414 14.1456 72.1719 14.1456 73.5659ZM13.8653 73.5659C13.8653 72.0166 15.1209 70.7611 16.6701 70.7611C18.2193 70.7611 19.4749 72.0166 19.4749 73.5659C19.4749 75.1151 18.2193 76.3706 16.6701 76.3706C15.1209 76.3706 13.8653 75.1151 13.8653 73.5659Z" fill="black"/>
<path d="M13.8798 83.3296C13.8798 84.8704 15.1293 86.1199 16.6701 86.1199C18.2109 86.1199 19.4604 84.8704 19.4604 83.3296C19.4604 81.7887 18.2109 80.5393 16.6701 80.5393C15.1293 80.5393 13.8798 81.7887 13.8798 83.3296ZM13.5697 83.3296C13.5697 81.6175 14.958 80.2292 16.6701 80.2292C18.3822 80.2292 19.7705 81.6175 19.7705 83.3296C19.7705 85.0417 18.3822 86.4299 16.6701 86.4299C14.958 86.4299 13.5697 85.0417 13.5697 83.3296Z" fill="black"/>
<path d="M13.6143 93.0933C13.6143 94.781 14.9824 96.149 16.6701 96.149C18.3578 96.149 19.7259 94.781 19.7259 93.0933C19.7259 91.4056 18.3578 90.0372 16.6701 90.0372C14.9824 90.0372 13.6143 91.4056 13.6143 93.0933ZM13.2745 93.0933C13.2745 91.218 14.7948 89.6977 16.6701 89.6977C18.5454 89.6977 20.0657 91.218 20.0657 93.0933C20.0657 94.9686 18.5454 96.4889 16.6701 96.4889C14.7948 96.4889 13.2745 94.9686 13.2745 93.0933Z" fill="black"/>
<path d="M25.8328 5.21978C25.8328 5.55159 26.102 5.82086 26.4339 5.82086C26.7657 5.82086 27.0349 5.55159 27.0349 5.21978C27.0349 4.88796 26.7657 4.6187 26.4339 4.6187C26.102 4.6187 25.8328 4.88796 25.8328 5.21978ZM25.766 5.21978C25.766 4.85097 26.0651 4.55196 26.4339 4.55196C26.8027 4.55196 27.1017 4.85097 27.1017 5.21978C27.1017 5.58859 26.8027 5.8876 26.4339 5.8876C26.0651 5.8876 25.766 5.58859 25.766 5.21978Z" fill="black"/>
<path d="M25.5925 14.9835C25.5925 15.4484 25.9689 15.8249 26.4339 15.8249C26.8988 15.8249 27.2752 15.4484 27.2752 14.9835C27.2752 14.5186 26.8988 14.1421 26.4339 14.1421C25.9689 14.1421 25.5925 14.5186 25.5925 14.9835ZM25.4991 14.9835C25.4991 14.4671 25.9174 14.0487 26.4339 14.0487C26.9503 14.0487 27.3687 14.4671 27.3687 14.9835C27.3687 15.4999 26.9503 15.9183 26.4339 15.9183C25.9174 15.9183 25.4991 15.4999 25.4991 14.9835Z" fill="black"/>
<path d="M25.3518 24.7472C25.3518 25.3449 25.8362 25.8292 26.4339 25.8292C27.0315 25.8292 27.5159 25.3449 27.5159 24.7472C27.5159 24.1496 27.0315 23.6652 26.4339 23.6652C25.8362 23.6652 25.3518 24.1496 25.3518 24.7472ZM25.2317 24.7472C25.2317 24.0832 25.7698 23.5451 26.4339 23.5451C27.0979 23.5451 27.636 24.0832 27.636 24.7472C27.636 25.4112 27.0979 25.9494 26.4339 25.9494C25.7698 25.9494 25.2317 25.4112 25.2317 24.7472Z" fill="black"/>
<path d="M25.1116 34.511C25.1116 35.2413 25.7035 35.8333 26.4339 35.8333C27.1642 35.8333 27.7562 35.2413 27.7562 34.511C27.7562 33.7806 27.1642 33.1887 26.4339 33.1887C25.7035 33.1887 25.1116 33.7806 25.1116 34.511ZM24.9647 34.511C24.9647 33.6993 25.6222 33.0418 26.4339 33.0418C27.2455 33.0418 27.903 33.6993 27.903 34.511C27.903 35.3226 27.2455 35.9801 26.4339 35.9801C25.6222 35.9801 24.9647 35.3226 24.9647 34.511Z" fill="black"/>
<path d="M24.8713 44.2747C24.8713 45.1378 25.5708 45.8376 26.4339 45.8376C27.297 45.8376 27.9968 45.1378 27.9968 44.2747C27.9968 43.4116 27.297 42.7117 26.4339 42.7117C25.5708 42.7117 24.8713 43.4116 24.8713 44.2747ZM24.6974 44.2747C24.6974 43.3159 25.475 42.5382 26.4339 42.5382C27.3927 42.5382 28.1704 43.3159 28.1704 44.2747C28.1704 45.2335 27.3927 46.0112 26.4339 46.0112C25.475 46.0112 24.6974 45.2335 24.6974 44.2747Z" fill="black"/>
<path d="M24.6306 54.0384C24.6306 55.0342 25.438 55.8416 26.4339 55.8416C27.4297 55.8416 28.2371 55.0342 28.2371 54.0384C28.2371 53.0426 27.4297 52.2352 26.4339 52.2352C25.438 52.2352 24.6306 53.0426 24.6306 54.0384ZM24.4304 54.0384C24.4304 52.932 25.3274 52.0349 26.4339 52.0349C27.5403 52.0349 28.4373 52.932 28.4373 54.0384C28.4373 55.1448 27.5403 56.0419 26.4339 56.0419C25.3274 56.0419 24.4304 55.1448 24.4304 54.0384Z" fill="black"/>
<path d="M24.3903 63.8021C24.3903 64.9307 25.3053 65.8456 26.4339 65.8456C27.5624 65.8456 28.4774 64.9307 28.4774 63.8021C28.4774 62.6736 27.5624 61.7586 26.4339 61.7586C25.3053 61.7586 24.3903 62.6736 24.3903 63.8021ZM24.163 63.8021C24.163 62.5481 25.1798 61.5313 26.4339 61.5313C27.6879 61.5313 28.7047 62.5481 28.7047 63.8021C28.7047 65.0562 27.6879 66.073 26.4339 66.073C25.1798 66.073 24.163 65.0562 24.163 63.8021Z" fill="black"/>
<path d="M24.1497 73.5659C24.1497 74.8275 25.1726 75.85 26.4339 75.85C27.6951 75.85 28.718 74.8275 28.718 73.5659C28.718 72.3042 27.6951 71.2817 26.4339 71.2817C25.1726 71.2817 24.1497 72.3042 24.1497 73.5659ZM23.896 73.5659C23.896 72.1642 25.0322 71.0281 26.4339 71.0281C27.8355 71.0281 28.9717 72.1642 28.9717 73.5659C28.9717 74.9675 27.8355 76.1037 26.4339 76.1037C25.0322 76.1037 23.896 74.9675 23.896 73.5659Z" fill="black"/>
<path d="M23.9094 83.3296C23.9094 84.7236 25.0399 85.854 26.4339 85.854C27.8279 85.854 28.9583 84.7236 28.9583 83.3296C28.9583 81.9356 27.8279 80.8051 26.4339 80.8051C25.0399 80.8051 23.9094 81.9356 23.9094 83.3296ZM23.6291 83.3296C23.6291 81.7804 24.8846 80.5248 26.4339 80.5248C27.9831 80.5248 29.2387 81.7804 29.2387 83.3296C29.2387 84.8788 27.9831 86.1344 26.4339 86.1344C24.8846 86.1344 23.6291 84.8788 23.6291 83.3296Z" fill="black"/>
<path d="M23.6691 93.0933C23.6691 94.6204 24.9067 95.858 26.4339 95.858C27.961 95.858 29.1986 94.6204 29.1986 93.0933C29.1986 91.5662 27.961 90.3286 26.4339 90.3286C24.9067 90.3286 23.6691 91.5662 23.6691 93.0933ZM23.3617 93.0933C23.3617 91.3965 24.737 90.0212 26.4339 90.0212C28.1307 90.0212 29.506 91.3965 29.506 93.0933C29.506 94.7901 28.1307 96.1654 26.4339 96.1654C24.737 96.1654 23.3617 94.7901 23.3617 93.0933Z" fill="black"/>
<path d="M35.6599 5.21978C35.6599 5.51689 35.9005 5.75755 36.1976 5.75755C36.4947 5.75755 36.7354 5.51689 36.7354 5.21978C36.7354 4.92267 36.4947 4.68201 36.1976 4.68201C35.9005 4.68201 35.6599 4.92267 35.6599 5.21978ZM35.6 5.21978C35.6 4.88987 35.8677 4.62213 36.1976 4.62213C36.5275 4.62213 36.7953 4.88987 36.7953 5.21978C36.7953 5.54969 36.5275 5.81743 36.1976 5.81743C35.8677 5.81743 35.6 5.54969 35.6 5.21978Z" fill="black"/>
<path d="M35.4447 14.9835C35.4447 15.3992 35.7819 15.7364 36.1976 15.7364C36.6133 15.7364 36.9505 15.3992 36.9505 14.9835C36.9505 14.5678 36.6133 14.2306 36.1976 14.2306C35.7819 14.2306 35.4447 14.5678 35.4447 14.9835ZM35.3612 14.9835C35.3612 14.5216 35.7358 14.1471 36.1976 14.1471C36.6595 14.1471 37.034 14.5216 37.034 14.9835C37.034 15.4454 36.6595 15.8199 36.1976 15.8199C35.7358 15.8199 35.3612 15.4454 35.3612 14.9835Z" fill="black"/>
<path d="M35.2296 24.7472C35.2296 25.2819 35.6629 25.7152 36.1976 25.7152C36.7323 25.7152 37.1656 25.2819 37.1656 24.7472C37.1656 24.2125 36.7323 23.7792 36.1976 23.7792C35.6629 23.7792 35.2296 24.2125 35.2296 24.7472ZM35.1221 24.7472C35.1221 24.153 35.6034 23.6717 36.1976 23.6717C36.7918 23.6717 37.2732 24.153 37.2732 24.7472C37.2732 25.3414 36.7918 25.8228 36.1976 25.8228C35.6034 25.8228 35.1221 25.3414 35.1221 24.7472Z" fill="black"/>
<path d="M35.0145 34.511C35.0145 35.1643 35.5443 35.694 36.1976 35.694C36.851 35.694 37.3807 35.1643 37.3807 34.511C37.3807 33.8576 36.851 33.3279 36.1976 33.3279C35.5443 33.3279 35.0145 33.8576 35.0145 34.511ZM34.8829 34.511C34.8829 33.7848 35.4714 33.1963 36.1976 33.1963C36.9238 33.1963 37.5123 33.7848 37.5123 34.511C37.5123 35.2371 36.9238 35.8256 36.1976 35.8256C35.4714 35.8256 34.8829 35.2371 34.8829 34.511Z" fill="black"/>
<path d="M34.7994 44.2747C34.7994 45.047 35.4253 45.6729 36.1976 45.6729C36.97 45.6729 37.5958 45.047 37.5958 44.2747C37.5958 43.5024 36.97 42.8765 36.1976 42.8765C35.4253 42.8765 34.7994 43.5024 34.7994 44.2747ZM34.6442 44.2747C34.6442 43.4165 35.3395 42.7213 36.1976 42.7213C37.0558 42.7213 37.7511 43.4165 37.7511 44.2747C37.7511 45.1328 37.0558 45.8281 36.1976 45.8281C35.3395 45.8281 34.6442 45.1328 34.6442 44.2747Z" fill="black"/>
<path d="M34.5843 54.0384C34.5843 54.9294 35.3067 55.6517 36.1976 55.6517C37.0886 55.6517 37.8109 54.9294 37.8109 54.0384C37.8109 53.1475 37.0886 52.4251 36.1976 52.4251C35.3067 52.4251 34.5843 53.1475 34.5843 54.0384ZM34.4051 54.0384C34.4051 53.0483 35.2075 52.2458 36.1976 52.2458C37.1877 52.2458 37.9902 53.0483 37.9902 54.0384C37.9902 55.0285 37.1877 55.831 36.1976 55.831C35.2075 55.831 34.4051 55.0285 34.4051 54.0384Z" fill="black"/>
<path d="M34.3692 63.8021C34.3692 64.8121 35.1877 65.6305 36.1976 65.6305C37.2076 65.6305 38.026 64.8121 38.026 63.8021C38.026 62.7922 37.2076 61.9737 36.1976 61.9737C35.1877 61.9737 34.3692 62.7922 34.3692 63.8021ZM34.1659 63.8021C34.1659 62.6801 35.0756 61.7704 36.1976 61.7704C37.3197 61.7704 38.2293 62.6801 38.2293 63.8021C38.2293 64.9242 37.3197 65.8338 36.1976 65.8338C35.0756 65.8338 34.1659 64.9242 34.1659 63.8021Z" fill="black"/>
<path d="M34.1541 73.5659C34.1541 74.6944 35.0691 75.6094 36.1976 75.6094C37.3262 75.6094 38.2411 74.6944 38.2411 73.5659C38.2411 72.4373 37.3262 71.5223 36.1976 71.5223C35.0691 71.5223 34.1541 72.4373 34.1541 73.5659ZM33.9268 73.5659C33.9268 72.3118 34.9436 71.295 36.1976 71.295C37.4517 71.295 38.4685 72.3118 38.4685 73.5659C38.4685 74.8199 37.4517 75.8367 36.1976 75.8367C34.9436 75.8367 33.9268 74.8199 33.9268 73.5659Z" fill="black"/>
<path d="M33.939 83.3296C33.939 84.5771 34.9501 85.5882 36.1976 85.5882C37.4452 85.5882 38.4563 84.5771 38.4563 83.3296C38.4563 82.082 37.4452 81.071 36.1976 81.071C34.9501 81.071 33.939 82.082 33.939 83.3296ZM33.688 83.3296C33.688 81.9436 34.8116 80.82 36.1976 80.82C37.5836 80.82 38.7072 81.9436 38.7072 83.3296C38.7072 84.7156 37.5836 85.8392 36.1976 85.8392C34.8116 85.8392 33.688 84.7156 33.688 83.3296Z" fill="black"/>
<path d="M33.7239 93.0933C33.7239 94.4595 34.8315 95.567 36.1976 95.567C37.5638 95.567 38.6714 94.4595 38.6714 93.0933C38.6714 91.7271 37.5638 90.6196 36.1976 90.6196C34.8315 90.6196 33.7239 91.7271 33.7239 93.0933ZM33.4489 93.0933C33.4489 91.5754 34.6797 90.3446 36.1976 90.3446C37.7156 90.3446 38.9464 91.5754 38.9464 93.0933C38.9464 94.6113 37.7156 95.842 36.1976 95.842C34.6797 95.842 33.4489 94.6113 33.4489 93.0933Z" fill="black"/>
<path d="M45.4869 5.21978C45.4869 5.4818 45.6994 5.69424 45.9614 5.69424C46.2234 5.69424 46.4358 5.4818 46.4358 5.21978C46.4358 4.95776 46.2234 4.74532 45.9614 4.74532C45.6994 4.74532 45.4869 4.95776 45.4869 5.21978ZM45.4343 5.21978C45.4343 4.92877 45.6704 4.69269 45.9614 4.69269C46.2524 4.69269 46.4885 4.92877 46.4885 5.21978C46.4885 5.51078 46.2524 5.74687 45.9614 5.74687C45.6704 5.74687 45.4343 5.51078 45.4343 5.21978Z" fill="black"/>
<path d="M45.297 14.9835C45.297 15.3504 45.5945 15.6479 45.9614 15.6479C46.3283 15.6479 46.6258 15.3504 46.6258 14.9835C46.6258 14.6166 46.3283 14.3191 45.9614 14.3191C45.5945 14.3191 45.297 14.6166 45.297 14.9835ZM45.2234 14.9835C45.2234 14.5758 45.5537 14.2455 45.9614 14.2455C46.3691 14.2455 46.6994 14.5758 46.6994 14.9835C46.6994 15.3912 46.3691 15.7215 45.9614 15.7215C45.5537 15.7215 45.2234 15.3912 45.2234 14.9835Z" fill="black"/>
<path d="M45.1074 24.7472C45.1074 25.219 45.4896 25.6012 45.9614 25.6012C46.4332 25.6012 46.8153 25.219 46.8153 24.7472C46.8153 24.2754 46.4332 23.8933 45.9614 23.8933C45.4896 23.8933 45.1074 24.2754 45.1074 24.7472ZM45.0125 24.7472C45.0125 24.2232 45.4373 23.7983 45.9614 23.7983C46.4854 23.7983 46.9103 24.2232 46.9103 24.7472C46.9103 25.2713 46.4854 25.6961 45.9614 25.6961C45.4373 25.6961 45.0125 25.2713 45.0125 24.7472Z" fill="black"/>
<path d="M44.9175 34.511C44.9175 35.0876 45.3847 35.5548 45.9614 35.5548C46.5381 35.5548 47.0053 35.0876 47.0053 34.511C47.0053 33.9343 46.5381 33.4671 45.9614 33.4671C45.3847 33.4671 44.9175 33.9343 44.9175 34.511ZM44.8016 34.511C44.8016 33.8702 45.3206 33.3511 45.9614 33.3511C46.6021 33.3511 47.1212 33.8702 47.1212 34.511C47.1212 35.1517 46.6021 35.6708 45.9614 35.6708C45.3206 35.6708 44.8016 35.1517 44.8016 34.511Z" fill="black"/>
<path d="M44.7276 44.2747C44.7276 44.9562 45.2798 45.5085 45.9614 45.5085C46.6429 45.5085 47.1952 44.9562 47.1952 44.2747C47.1952 43.5931 46.6429 43.0409 45.9614 43.0409C45.2798 43.0409 44.7276 43.5931 44.7276 44.2747ZM44.5906 44.2747C44.5906 43.5176 45.2043 42.9039 45.9614 42.9039C46.7185 42.9039 47.3321 43.5176 47.3321 44.2747C47.3321 45.0317 46.7185 45.6454 45.9614 45.6454C45.2043 45.6454 44.5906 45.0317 44.5906 44.2747Z" fill="black"/>
<path d="M44.538 54.0384C44.538 54.8248 45.1749 55.4618 45.9614 55.4618C46.7478 55.4618 47.3848 54.8248 47.3848 54.0384C47.3848 53.252 46.7478 52.615 45.9614 52.615C45.1749 52.615 44.538 53.252 44.538 54.0384ZM44.3797 54.0384C44.3797 53.165 45.088 52.4568 45.9614 52.4568C46.8348 52.4568 47.543 53.165 47.543 54.0384C47.543 54.9118 46.8348 55.6201 45.9614 55.6201C45.088 55.6201 44.3797 54.9118 44.3797 54.0384Z" fill="black"/>
<path d="M44.3481 63.8021C44.3481 64.6931 45.0704 65.4154 45.9614 65.4154C46.8523 65.4154 47.5747 64.6931 47.5747 63.8021C47.5747 62.9112 46.8523 62.1888 45.9614 62.1888C45.0704 62.1888 44.3481 62.9112 44.3481 63.8021ZM44.1688 63.8021C44.1688 62.812 44.9713 62.0096 45.9614 62.0096C46.9515 62.0096 47.754 62.812 47.754 63.8021C47.754 64.7922 46.9515 65.5947 45.9614 65.5947C44.9713 65.5947 44.1688 64.7922 44.1688 63.8021Z" fill="black"/>
<path d="M44.1581 73.5659C44.1581 74.5617 44.9656 75.3691 45.9614 75.3691C46.9572 75.3691 47.7646 74.5617 47.7646 73.5659C47.7646 72.57 46.9572 71.7626 45.9614 71.7626C44.9656 71.7626 44.1581 72.57 44.1581 73.5659ZM43.9579 73.5659C43.9579 72.4594 44.8549 71.5624 45.9614 71.5624C47.0678 71.5624 47.9649 72.4594 47.9649 73.5659C47.9649 74.6723 47.0678 75.5693 45.9614 75.5693C44.8549 75.5693 43.9579 74.6723 43.9579 73.5659Z" fill="black"/>
<path d="M43.9686 83.3296C43.9686 84.4303 44.8607 85.3224 45.9614 85.3224C47.0621 85.3224 47.9542 84.4303 47.9542 83.3296C47.9542 82.2289 47.0621 81.3368 45.9614 81.3368C44.8607 81.3368 43.9686 82.2289 43.9686 83.3296ZM43.747 83.3296C43.747 82.1068 44.7386 81.1152 45.9614 81.1152C47.1841 81.1152 48.1758 82.1068 48.1758 83.3296C48.1758 84.5523 47.1841 85.544 45.9614 85.544C44.7386 85.544 43.747 84.5523 43.747 83.3296Z" fill="black"/>
<path d="M43.7787 93.0933C43.7787 94.2989 44.7558 95.276 45.9614 95.276C47.167 95.276 48.1441 94.2989 48.1441 93.0933C48.1441 91.8877 47.167 90.9106 45.9614 90.9106C44.7558 90.9106 43.7787 91.8877 43.7787 93.0933ZM43.5361 93.0933C43.5361 91.7538 44.6219 90.668 45.9614 90.668C47.3009 90.668 48.3867 91.7538 48.3867 93.0933C48.3867 94.4328 47.3009 95.5186 45.9614 95.5186C44.6219 95.5186 43.5361 94.4328 43.5361 93.0933Z" fill="black"/>
<path d="M55.314 5.21978C55.314 5.44671 55.4982 5.63092 55.7251 5.63092C55.9521 5.63092 56.1363 5.44671 56.1363 5.21978C56.1363 4.99285 55.9521 4.80863 55.7251 4.80863C55.4982 4.80863 55.314 4.99285 55.314 5.21978ZM55.2682 5.21978C55.2682 4.9673 55.4727 4.76287 55.7251 4.76287C55.9776 4.76287 56.1821 4.9673 56.1821 5.21978C56.1821 5.47226 55.9776 5.67669 55.7251 5.67669C55.4727 5.67669 55.2682 5.47226 55.2682 5.21978Z" fill="black"/>
<path d="M55.1496 14.9835C55.1496 15.3016 55.4071 15.5594 55.7251 15.5594C56.0432 15.5594 56.3007 15.3016 56.3007 14.9835C56.3007 14.6654 56.0432 14.4076 55.7251 14.4076C55.4071 14.4076 55.1496 14.6654 55.1496 14.9835ZM55.0855 14.9835C55.0855 14.6303 55.372 14.3439 55.7251 14.3439C56.0783 14.3439 56.3647 14.6303 56.3647 14.9835C56.3647 15.3367 56.0783 15.6231 55.7251 15.6231C55.372 15.6231 55.0855 15.3367 55.0855 14.9835Z" fill="black"/>
<path d="M54.9849 24.7472C54.9849 25.1561 55.3163 25.4875 55.7251 25.4875C56.134 25.4875 56.4654 25.1561 56.4654 24.7472C56.4654 24.3384 56.134 24.0069 55.7251 24.0069C55.3163 24.0069 54.9849 24.3384 54.9849 24.7472ZM54.9025 24.7472C54.9025 24.293 55.2709 23.9246 55.7251 23.9246C56.1794 23.9246 56.5478 24.293 56.5478 24.7472C56.5478 25.2015 56.1794 25.5699 55.7251 25.5699C55.2709 25.5699 54.9025 25.2015 54.9025 24.7472Z" fill="black"/>
<path d="M54.8205 34.511C54.8205 35.0106 55.2255 35.4156 55.7252 35.4156C56.2248 35.4156 56.6298 35.0106 56.6298 34.511C56.6298 34.0113 56.2248 33.6063 55.7252 33.6063C55.2255 33.6063 54.8205 34.0113 54.8205 34.511ZM54.7198 34.511C54.7198 33.9556 55.1698 33.5056 55.7252 33.5056C56.2805 33.5056 56.7305 33.9556 56.7305 34.511C56.7305 35.0663 56.2805 35.5163 55.7252 35.5163C55.1698 35.5163 54.7198 35.0663 54.7198 34.511Z" fill="black"/>
<path d="M54.6561 44.2747C54.6561 44.8651 55.1348 45.3437 55.7252 45.3437C56.3156 45.3437 56.7942 44.8651 56.7942 44.2747C56.7942 43.6843 56.3156 43.2056 55.7252 43.2056C55.1348 43.2056 54.6561 43.6843 54.6561 44.2747ZM54.5371 44.2747C54.5371 43.6183 55.0688 43.0866 55.7252 43.0866C56.3815 43.0866 56.9132 43.6183 56.9132 44.2747C56.9132 44.9311 56.3815 45.4627 55.7252 45.4627C55.0688 45.4627 54.5371 44.9311 54.5371 44.2747Z" fill="black"/>
<path d="M54.4913 54.0384C54.4913 54.72 55.0436 55.2722 55.7252 55.2722C56.4067 55.2722 56.959 54.72 56.959 54.0384C56.959 53.3569 56.4067 52.8046 55.7252 52.8046C55.0436 52.8046 54.4913 53.3569 54.4913 54.0384ZM54.3544 54.0384C54.3544 53.2813 54.9681 52.6677 55.7252 52.6677C56.4822 52.6677 57.0959 53.2813 57.0959 54.0384C57.0959 54.7955 56.4822 55.4091 55.7252 55.4091C54.9681 55.4091 54.3544 54.7955 54.3544 54.0384Z" fill="black"/>
<path d="M54.327 63.8021C54.327 64.5745 54.9528 65.2003 55.7252 65.2003C56.4975 65.2003 57.1234 64.5745 57.1234 63.8021C57.1234 63.0298 56.4975 62.4039 55.7252 62.4039C54.9528 62.4039 54.327 63.0298 54.327 63.8021ZM54.1717 63.8021C54.1717 62.944 54.867 62.2487 55.7252 62.2487C56.5833 62.2487 57.2786 62.944 57.2786 63.8021C57.2786 64.6603 56.5833 65.3556 55.7252 65.3556C54.867 65.3556 54.1717 64.6603 54.1717 63.8021Z" fill="black"/>
<path d="M54.1622 73.5659C54.1622 74.429 54.862 75.1288 55.7252 75.1288C56.5883 75.1288 57.2881 74.429 57.2881 73.5659C57.2881 72.7028 56.5883 72.0029 55.7252 72.0029C54.862 72.0029 54.1622 72.7028 54.1622 73.5659ZM53.9887 73.5659C53.9887 72.607 54.7663 71.8294 55.7252 71.8294C56.684 71.8294 57.4617 72.607 57.4617 73.5659C57.4617 74.5247 56.684 75.3024 55.7252 75.3024C54.7663 75.3024 53.9887 74.5247 53.9887 73.5659Z" fill="black"/>
<path d="M53.9978 83.3296C53.9978 84.2835 54.7713 85.0569 55.7252 85.0569C56.679 85.0569 57.4525 84.2835 57.4525 83.3296C57.4525 82.3757 56.679 81.6022 55.7252 81.6022C54.7713 81.6022 53.9978 82.3757 53.9978 83.3296ZM53.806 83.3296C53.806 82.2697 54.6652 81.4104 55.7252 81.4104C56.7851 81.4104 57.6443 82.2697 57.6443 83.3296C57.6443 84.3895 56.7851 85.2488 55.7252 85.2488C54.6652 85.2488 53.806 84.3895 53.806 83.3296Z" fill="black"/>
<path d="M53.8334 93.0933C53.8334 94.1379 54.6805 94.985 55.7251 94.985C56.7698 94.985 57.6169 94.1379 57.6169 93.0933C57.6169 92.0487 56.7698 91.2016 55.7251 91.2016C54.6805 91.2016 53.8334 92.0487 53.8334 93.0933ZM53.6233 93.0933C53.6233 91.9323 54.5642 90.9914 55.7251 90.9914C56.8861 90.9914 57.827 91.9323 57.827 93.0933C57.827 94.2543 56.8861 95.1952 55.7251 95.1952C54.5642 95.1952 53.6233 94.2543 53.6233 93.0933Z" fill="black"/>
<path d="M65.1411 5.21978C65.1411 5.412 65.2967 5.56761 65.4889 5.56761C65.6811 5.56761 65.8367 5.412 65.8367 5.21978C65.8367 5.02756 65.6811 4.87195 65.4889 4.87195C65.2967 4.87195 65.1411 5.02756 65.1411 5.21978ZM65.1022 5.21978C65.1022 5.0062 65.2753 4.83304 65.4889 4.83304C65.7025 4.83304 65.8756 5.0062 65.8756 5.21978C65.8756 5.43336 65.7025 5.60651 65.4889 5.60651C65.2753 5.60651 65.1022 5.43336 65.1022 5.21978Z" fill="black"/>
<path d="M65.0019 14.9835C65.0019 15.2528 65.2197 15.4705 65.4889 15.4705C65.7582 15.4705 65.976 15.2528 65.976 14.9835C65.976 14.7142 65.7582 14.4965 65.4889 14.4965C65.2197 14.4965 65.0019 14.7142 65.0019 14.9835ZM64.9477 14.9835C64.9477 14.6845 65.1899 14.4423 65.4889 14.4423C65.7879 14.4423 66.0301 14.6845 66.0301 14.9835C66.0301 15.2825 65.7879 15.5247 65.4889 15.5247C65.1899 15.5247 64.9477 15.2825 64.9477 14.9835Z" fill="black"/>
<path d="M64.8627 24.7472C64.8627 25.0932 65.143 25.3735 65.4889 25.3735C65.8348 25.3735 66.1152 25.0932 66.1152 24.7472C66.1152 24.4013 65.8348 24.121 65.4889 24.121C65.143 24.121 64.8627 24.4013 64.8627 24.7472ZM64.7929 24.7472C64.7929 24.3628 65.1045 24.0512 65.4889 24.0512C65.8734 24.0512 66.185 24.3628 66.185 24.7472C66.185 25.1317 65.8734 25.4433 65.4889 25.4433C65.1045 25.4433 64.7929 25.1317 64.7929 24.7472Z" fill="black"/>
<path d="M64.7234 34.511C64.7234 34.9339 65.0663 35.2764 65.4889 35.2764C65.9115 35.2764 66.2544 34.9339 66.2544 34.511C66.2544 34.088 65.9115 33.7455 65.4889 33.7455C65.0663 33.7455 64.7234 34.088 64.7234 34.511ZM64.6384 34.511C64.6384 34.0411 65.019 33.6604 65.4889 33.6604C65.9588 33.6604 66.3394 34.0411 66.3394 34.511C66.3394 34.9808 65.9588 35.3615 65.4889 35.3615C65.019 35.3615 64.6384 34.9808 64.6384 34.511Z" fill="black"/>
<path d="M64.5842 44.2747C64.5842 44.7743 64.9893 45.1794 65.4889 45.1794C65.9885 45.1794 66.3936 44.7743 66.3936 44.2747C66.3936 43.7751 65.9885 43.37 65.4889 43.37C64.9893 43.37 64.5842 43.7751 64.5842 44.2747ZM64.4836 44.2747C64.4836 43.7194 64.9336 43.2693 65.4889 43.2693C66.0442 43.2693 66.4943 43.7194 66.4943 44.2747C66.4943 44.83 66.0442 45.28 65.4889 45.28C64.9336 45.28 64.4836 44.83 64.4836 44.2747Z" fill="black"/>
<path d="M64.445 54.0384C64.445 54.6151 64.9122 55.0823 65.4889 55.0823C66.0656 55.0823 66.5328 54.6151 66.5328 54.0384C66.5328 53.4617 66.0656 52.9945 65.4889 52.9945C64.9122 52.9945 64.445 53.4617 64.445 54.0384ZM64.3291 54.0384C64.3291 53.3977 64.8482 52.8786 65.4889 52.8786C66.1297 52.8786 66.6487 53.3977 66.6487 54.0384C66.6487 54.6792 66.1297 55.1982 65.4889 55.1982C64.8482 55.1982 64.3291 54.6792 64.3291 54.0384Z" fill="black"/>
<path d="M64.3058 63.8021C64.3058 64.4555 64.8356 64.9852 65.4889 64.9852C66.1423 64.9852 66.672 64.4555 66.672 63.8021C66.672 63.1488 66.1423 62.619 65.4889 62.619C64.8356 62.619 64.3058 63.1488 64.3058 63.8021ZM64.1742 63.8021C64.1742 63.076 64.7627 62.4875 65.4889 62.4875C66.2151 62.4875 66.8036 63.076 66.8036 63.8021C66.8036 64.5283 66.2151 65.1168 65.4889 65.1168C64.7627 65.1168 64.1742 64.5283 64.1742 63.8021Z" fill="black"/>
<path d="M64.1666 73.5659C64.1666 74.2962 64.7585 74.8882 65.4889 74.8882C66.2193 74.8882 66.8112 74.2962 66.8112 73.5659C66.8112 72.8355 66.2193 72.2436 65.4889 72.2436C64.7585 72.2436 64.1666 72.8355 64.1666 73.5659ZM64.0198 73.5659C64.0198 72.7542 64.6773 72.0967 65.4889 72.0967C66.3005 72.0967 66.9581 72.7542 66.9581 73.5659C66.9581 74.3775 66.3005 75.035 65.4889 75.035C64.6773 75.035 64.0198 74.3775 64.0198 73.5659Z" fill="black"/>
<path d="M64.0274 83.3296C64.0274 84.1366 64.6819 84.7911 65.4889 84.7911C66.296 84.7911 66.9504 84.1366 66.9504 83.3296C66.9504 82.5226 66.296 81.8681 65.4889 81.8681C64.6819 81.8681 64.0274 82.5226 64.0274 83.3296ZM63.8649 83.3296C63.8649 82.4325 64.5919 81.7056 65.4889 81.7056C66.386 81.7056 67.1129 82.4325 67.1129 83.3296C67.1129 84.2266 66.386 84.9536 65.4889 84.9536C64.5919 84.9536 63.8649 84.2266 63.8649 83.3296Z" fill="black"/>
<path d="M63.8882 93.0933C63.8882 93.9774 64.6048 94.694 65.4889 94.694C66.373 94.694 67.0896 93.9774 67.0896 93.0933C67.0896 92.2092 66.373 91.4926 65.4889 91.4926C64.6048 91.4926 63.8882 92.2092 63.8882 93.0933ZM63.7105 93.0933C63.7105 92.1108 64.5064 91.3149 65.4889 91.3149C66.4714 91.3149 67.2674 92.1108 67.2674 93.0933C67.2674 94.0758 66.4714 94.8718 65.4889 94.8718C64.5064 94.8718 63.7105 94.0758 63.7105 93.0933Z" fill="black"/>
<path d="M74.9682 5.21978C74.9682 5.37691 75.0955 5.5043 75.2527 5.5043C75.4098 5.5043 75.5372 5.37691 75.5372 5.21978C75.5372 5.06264 75.4098 4.93526 75.2527 4.93526C75.0955 4.93526 74.9682 5.06264 74.9682 5.21978ZM74.9365 5.21978C74.9365 5.0451 75.078 4.9036 75.2527 4.9036C75.4274 4.9036 75.5689 5.0451 75.5689 5.21978C75.5689 5.39446 75.4274 5.53596 75.2527 5.53596C75.078 5.53596 74.9365 5.39446 74.9365 5.21978Z" fill="black"/>
<path d="M74.8541 14.9835C74.8541 15.2036 75.0326 15.3821 75.2527 15.3821C75.4727 15.3821 75.6512 15.2036 75.6512 14.9835C75.6512 14.7634 75.4727 14.5849 75.2527 14.5849C75.0326 14.5849 74.8541 14.7634 74.8541 14.9835ZM74.8099 14.9835C74.8099 14.739 75.0082 14.5407 75.2527 14.5407C75.4972 14.5407 75.6955 14.739 75.6955 14.9835C75.6955 15.228 75.4972 15.4263 75.2527 15.4263C75.0082 15.4263 74.8099 15.228 74.8099 14.9835Z" fill="black"/>
<path d="M74.7401 24.7472C74.7401 25.0302 74.9697 25.2598 75.2527 25.2598C75.5357 25.2598 75.7653 25.0302 75.7653 24.7472C75.7653 24.4642 75.5357 24.2346 75.2527 24.2346C74.9697 24.2346 74.7401 24.4642 74.7401 24.7472ZM74.6833 24.7472C74.6833 24.4326 74.938 24.1778 75.2527 24.1778C75.5673 24.1778 75.8221 24.4326 75.8221 24.7472C75.8221 25.0619 75.5673 25.3167 75.2527 25.3167C74.938 25.3167 74.6833 25.0619 74.6833 24.7472Z" fill="black"/>
<path d="M74.6264 34.511C74.6264 34.8569 74.9068 35.1372 75.2527 35.1372C75.5986 35.1372 75.8789 34.8569 75.8789 34.511C75.8789 34.165 75.5986 33.8847 75.2527 33.8847C74.9068 33.8847 74.6264 34.165 74.6264 34.511ZM74.5566 34.511C74.5566 34.1265 74.8682 33.8149 75.2527 33.8149C75.6371 33.8149 75.9487 34.1265 75.9487 34.511C75.9487 34.8954 75.6371 35.207 75.2527 35.207C74.8682 35.207 74.5566 34.8954 74.5566 34.511Z" fill="black"/>
<path d="M74.5124 44.2747C74.5124 44.6835 74.8438 45.015 75.2527 45.015C75.6615 45.015 75.993 44.6835 75.993 44.2747C75.993 43.8658 75.6615 43.5344 75.2527 43.5344C74.8438 43.5344 74.5124 43.8658 74.5124 44.2747ZM74.43 44.2747C74.43 43.8204 74.7984 43.452 75.2527 43.452C75.7069 43.452 76.0753 43.8204 76.0753 44.2747C76.0753 44.7289 75.7069 45.0974 75.2527 45.0974C74.7984 45.0974 74.43 44.7289 74.43 44.2747Z" fill="black"/>
<path d="M74.3987 54.0384C74.3987 54.5102 74.7809 54.8924 75.2527 54.8924C75.7245 54.8924 76.1066 54.5102 76.1066 54.0384C76.1066 53.5666 75.7245 53.1845 75.2527 53.1845C74.7809 53.1845 74.3987 53.5666 74.3987 54.0384ZM74.3038 54.0384C74.3038 53.5144 74.7286 53.0895 75.2527 53.0895C75.7767 53.0895 76.2016 53.5144 76.2016 54.0384C76.2016 54.5624 75.7767 54.9873 75.2527 54.9873C74.7286 54.9873 74.3038 54.5624 74.3038 54.0384Z" fill="black"/>
<path d="M74.2847 63.8021C74.2847 64.3369 74.718 64.7701 75.2527 64.7701C75.7874 64.7701 76.2207 64.3369 76.2207 63.8021C76.2207 63.2674 75.7874 62.8342 75.2527 62.8342C74.718 62.8342 74.2847 63.2674 74.2847 63.8021ZM74.1771 63.8021C74.1771 63.2079 74.6585 62.7266 75.2527 62.7266C75.8469 62.7266 76.3282 63.2079 76.3282 63.8021C76.3282 64.3964 75.8469 64.8777 75.2527 64.8777C74.6585 64.8777 74.1771 64.3964 74.1771 63.8021Z" fill="black"/>
<path d="M74.1706 73.5659C74.1706 74.1635 74.655 74.6479 75.2527 74.6479C75.8503 74.6479 76.3347 74.1635 76.3347 73.5659C76.3347 72.9682 75.8503 72.4838 75.2527 72.4838C74.655 72.4838 74.1706 72.9682 74.1706 73.5659ZM74.0505 73.5659C74.0505 72.9018 74.5887 72.3637 75.2527 72.3637C75.9167 72.3637 76.4548 72.9018 76.4548 73.5659C76.4548 74.2299 75.9167 74.768 75.2527 74.768C74.5887 74.768 74.0505 74.2299 74.0505 73.5659Z" fill="black"/>
<path d="M74.057 83.3296C74.057 83.9902 74.5921 84.5253 75.2527 84.5253C75.9133 84.5253 76.4484 83.9902 76.4484 83.3296C76.4484 82.669 75.9133 82.1339 75.2527 82.1339C74.5921 82.1339 74.057 82.669 74.057 83.3296ZM73.9239 83.3296C73.9239 82.5958 74.5189 82.0008 75.2527 82.0008C75.9865 82.0008 76.5815 82.5958 76.5815 83.3296C76.5815 84.0634 75.9865 84.6584 75.2527 84.6584C74.5189 84.6584 73.9239 84.0634 73.9239 83.3296Z" fill="black"/>
<path d="M73.943 93.0933C73.943 93.8164 74.5295 94.403 75.2527 94.403C75.9758 94.403 76.5624 93.8164 76.5624 93.0933C76.5624 92.3702 75.9758 91.7836 75.2527 91.7836C74.5295 91.7836 73.943 92.3702 73.943 93.0933ZM73.7976 93.0933C73.7976 92.2897 74.4491 91.6383 75.2527 91.6383C76.0563 91.6383 76.7077 92.2897 76.7077 93.0933C76.7077 93.8969 76.0563 94.5483 75.2527 94.5483C74.4491 94.5483 73.7976 93.8969 73.7976 93.0933Z" fill="black"/>
<path d="M84.7948 5.21978C84.7948 5.34221 84.894 5.44137 85.0164 5.44137C85.1389 5.44137 85.238 5.34221 85.238 5.21978C85.238 5.09735 85.1389 4.99819 85.0164 4.99819C84.894 4.99819 84.7948 5.09735 84.7948 5.21978ZM84.7704 5.21978C84.7704 5.084 84.8807 4.97378 85.0164 4.97378C85.1522 4.97378 85.2624 5.084 85.2624 5.21978C85.2624 5.35556 85.1522 5.46578 85.0164 5.46578C84.8807 5.46578 84.7704 5.35556 84.7704 5.21978Z" fill="black"/>
<path d="M84.7064 14.9835C84.7064 15.1548 84.8452 15.2936 85.0164 15.2936C85.1877 15.2936 85.3265 15.1548 85.3265 14.9835C85.3265 14.8123 85.1877 14.6734 85.0164 14.6734C84.8452 14.6734 84.7064 14.8123 84.7064 14.9835ZM84.672 14.9835C84.672 14.7932 84.8261 14.6391 85.0164 14.6391C85.2068 14.6391 85.3608 14.7932 85.3608 14.9835C85.3608 15.1738 85.2068 15.3279 85.0164 15.3279C84.8261 15.3279 84.672 15.1738 84.672 14.9835Z" fill="black"/>
<path d="M84.6179 24.7472C84.6179 24.9673 84.7964 25.1458 85.0164 25.1458C85.2365 25.1458 85.415 24.9673 85.415 24.7472C85.415 24.5272 85.2365 24.3487 85.0164 24.3487C84.7964 24.3487 84.6179 24.5272 84.6179 24.7472ZM84.5736 24.7472C84.5736 24.5028 84.772 24.3044 85.0164 24.3044C85.2609 24.3044 85.4592 24.5028 85.4592 24.7472C85.4592 24.9917 85.2609 25.19 85.0164 25.19C84.772 25.19 84.5736 24.9917 84.5736 24.7472Z" fill="black"/>
<path d="M84.5294 34.511C84.5294 34.7802 84.7472 34.998 85.0164 34.998C85.2857 34.998 85.5035 34.7802 85.5035 34.511C85.5035 34.2417 85.2857 34.0239 85.0164 34.0239C84.7472 34.0239 84.5294 34.2417 84.5294 34.511ZM84.4752 34.511C84.4752 34.2119 84.7174 33.9698 85.0164 33.9698C85.3155 33.9698 85.5576 34.2119 85.5576 34.511C85.5576 34.81 85.3155 35.0522 85.0164 35.0522C84.7174 35.0522 84.4752 34.81 84.4752 34.511Z" fill="black"/>
<path d="M84.4409 44.2747C84.4409 44.5928 84.6984 44.8502 85.0164 44.8502C85.3345 44.8502 85.592 44.5928 85.592 44.2747C85.592 43.9566 85.3345 43.6992 85.0164 43.6992C84.6984 43.6992 84.4409 43.9566 84.4409 44.2747ZM84.3768 44.2747C84.3768 43.9215 84.6633 43.6351 85.0164 43.6351C85.3696 43.6351 85.656 43.9215 85.656 44.2747C85.656 44.6279 85.3696 44.9143 85.0164 44.9143C84.6633 44.9143 84.3768 44.6279 84.3768 44.2747Z" fill="black"/>
<path d="M84.3521 54.0384C84.3521 54.4053 84.6495 54.7028 85.0164 54.7028C85.3833 54.7028 85.6808 54.4053 85.6808 54.0384C85.6808 53.6715 85.3833 53.374 85.0164 53.374C84.6495 53.374 84.3521 53.6715 84.3521 54.0384ZM84.2784 54.0384C84.2784 53.6307 84.6087 53.3004 85.0164 53.3004C85.4242 53.3004 85.7544 53.6307 85.7544 54.0384C85.7544 54.4461 85.4242 54.7764 85.0164 54.7764C84.6087 54.7764 84.2784 54.4461 84.2784 54.0384Z" fill="black"/>
<path d="M84.2636 63.8021C84.2636 64.2179 84.6007 64.555 85.0164 64.555C85.4322 64.555 85.7693 64.2179 85.7693 63.8021C85.7693 63.3864 85.4322 63.0493 85.0164 63.0493C84.6007 63.0493 84.2636 63.3864 84.2636 63.8021ZM84.18 63.8021C84.18 63.3403 84.5546 62.9657 85.0164 62.9657C85.4783 62.9657 85.8528 63.3403 85.8528 63.8021C85.8528 64.264 85.4783 64.6385 85.0164 64.6385C84.5546 64.6385 84.18 64.264 84.18 63.8021Z" fill="black"/>
<path d="M84.1751 73.5659C84.1751 74.0308 84.5515 74.4072 85.0164 74.4072C85.4814 74.4072 85.8578 74.0308 85.8578 73.5659C85.8578 73.1009 85.4814 72.7245 85.0164 72.7245C84.5515 72.7245 84.1751 73.1009 84.1751 73.5659ZM84.0816 73.5659C84.0816 73.0494 84.5 72.6311 85.0164 72.6311C85.5329 72.6311 85.9512 73.0494 85.9512 73.5659C85.9512 74.0823 85.5329 74.5007 85.0164 74.5007C84.5 74.5007 84.0816 74.0823 84.0816 73.5659Z" fill="black"/>
<path d="M84.0866 83.3296C84.0866 83.8433 84.5027 84.2594 85.0164 84.2594C85.5302 84.2594 85.9463 83.8433 85.9463 83.3296C85.9463 82.8158 85.5302 82.3997 85.0164 82.3997C84.5027 82.3997 84.0866 82.8158 84.0866 83.3296ZM83.9828 83.3296C83.9828 82.7586 84.4455 82.296 85.0164 82.296C85.5874 82.296 86.05 82.7586 86.05 83.3296C86.05 83.9005 85.5874 84.3632 85.0164 84.3632C84.4455 84.3632 83.9828 83.9005 83.9828 83.3296Z" fill="black"/>
<path d="M83.9977 93.0933C83.9977 93.6559 84.4539 94.112 85.0164 94.112C85.579 94.112 86.0351 93.6559 86.0351 93.0933C86.0351 92.5308 85.579 92.0746 85.0164 92.0746C84.4539 92.0746 83.9977 92.5308 83.9977 93.0933ZM83.8844 93.0933C83.8844 92.4682 84.3913 91.9613 85.0164 91.9613C85.6415 91.9613 86.1484 92.4682 86.1484 93.0933C86.1484 93.7184 85.6415 94.2253 85.0164 94.2253C84.3913 94.2253 83.8844 93.7184 83.8844 93.0933Z" fill="black"/>
<path d="M94.6219 5.21978C94.6219 5.30712 94.6928 5.37806 94.7802 5.37806C94.8675 5.37806 94.9385 5.30712 94.9385 5.21978C94.9385 5.13244 94.8675 5.0615 94.7802 5.0615C94.6928 5.0615 94.6219 5.13244 94.6219 5.21978ZM94.6044 5.21978C94.6044 5.1229 94.6833 5.04396 94.7802 5.04396C94.8771 5.04396 94.956 5.1229 94.956 5.21978C94.956 5.31665 94.8771 5.3956 94.7802 5.3956C94.6833 5.3956 94.6044 5.31665 94.6044 5.21978Z" fill="black"/>
<path d="M94.5586 14.9835C94.5586 15.1059 94.6578 15.2051 94.7802 15.2051C94.9026 15.2051 95.0018 15.1059 95.0018 14.9835C95.0018 14.8611 94.9026 14.7619 94.7802 14.7619C94.6578 14.7619 94.5586 14.8611 94.5586 14.9835ZM94.5342 14.9835C94.5342 14.8477 94.6444 14.7375 94.7802 14.7375C94.916 14.7375 95.0262 14.8477 95.0262 14.9835C95.0262 15.1193 94.916 15.2295 94.7802 15.2295C94.6444 15.2295 94.5342 15.1193 94.5342 14.9835Z" fill="black"/>
<path d="M94.4957 24.7472C94.4957 24.9044 94.6231 25.0318 94.7802 25.0318C94.9373 25.0318 95.0647 24.9044 95.0647 24.7472C95.0647 24.5901 94.9373 24.4627 94.7802 24.4627C94.6231 24.4627 94.4957 24.5901 94.4957 24.7472ZM94.464 24.7472C94.464 24.5726 94.6055 24.4311 94.7802 24.4311C94.9549 24.4311 95.0964 24.5726 95.0964 24.7472C95.0964 24.9219 94.9549 25.0634 94.7802 25.0634C94.6055 25.0634 94.464 24.9219 94.464 24.7472Z" fill="black"/>
<path d="M94.4324 34.511C94.4324 34.7032 94.588 34.8588 94.7802 34.8588C94.9724 34.8588 95.128 34.7032 95.128 34.511C95.128 34.3187 94.9724 34.1631 94.7802 34.1631C94.588 34.1631 94.4324 34.3187 94.4324 34.511ZM94.3935 34.511C94.3935 34.2974 94.5666 34.1242 94.7802 34.1242C94.9938 34.1242 95.1669 34.2974 95.1669 34.511C95.1669 34.7245 94.9938 34.8977 94.7802 34.8977C94.5666 34.8977 94.3935 34.7245 94.3935 34.511Z" fill="black"/>
<path d="M94.369 44.2747C94.369 44.5016 94.5533 44.6858 94.7802 44.6858C95.0071 44.6858 95.1913 44.5016 95.1913 44.2747C95.1913 44.0478 95.0071 43.8635 94.7802 43.8635C94.5533 43.8635 94.369 44.0478 94.369 44.2747ZM94.3233 44.2747C94.3233 44.0222 94.5277 43.8178 94.7802 43.8178C95.0327 43.8178 95.2371 44.0222 95.2371 44.2747C95.2371 44.5272 95.0327 44.7316 94.7802 44.7316C94.5277 44.7316 94.3233 44.5272 94.3233 44.2747Z" fill="black"/>
<path d="M94.3057 54.0384C94.3057 54.3004 94.5182 54.5129 94.7802 54.5129C95.0422 54.5129 95.2547 54.3004 95.2547 54.0384C95.2547 53.7764 95.0422 53.5639 94.7802 53.5639C94.5182 53.5639 94.3057 53.7764 94.3057 54.0384ZM94.2531 54.0384C94.2531 53.7474 94.4892 53.5113 94.7802 53.5113C95.0712 53.5113 95.3073 53.7474 95.3073 54.0384C95.3073 54.3294 95.0712 54.5655 94.7802 54.5655C94.4892 54.5655 94.2531 54.3294 94.2531 54.0384Z" fill="black"/>
<path d="M94.2424 63.8021C94.2424 64.0992 94.4831 64.3399 94.7802 64.3399C95.0773 64.3399 95.318 64.0992 95.318 63.8021C95.318 63.505 95.0773 63.2644 94.7802 63.2644C94.4831 63.2644 94.2424 63.505 94.2424 63.8021ZM94.1826 63.8021C94.1826 63.4722 94.4503 63.2045 94.7802 63.2045C95.1101 63.2045 95.3779 63.4722 95.3779 63.8021C95.3779 64.132 95.1101 64.3998 94.7802 64.3998C94.4503 64.3998 94.1826 64.132 94.1826 63.8021Z" fill="black"/>
<path d="M94.1791 73.5659C94.1791 73.8977 94.4484 74.1669 94.7802 74.1669C95.112 74.1669 95.3813 73.8977 95.3813 73.5659C95.3813 73.234 95.112 72.9648 94.7802 72.9648C94.4484 72.9648 94.1791 73.234 94.1791 73.5659ZM94.1124 73.5659C94.1124 73.197 94.4114 72.898 94.7802 72.898C95.149 72.898 95.448 73.197 95.448 73.5659C95.448 73.9347 95.149 74.2337 94.7802 74.2337C94.4114 74.2337 94.1124 73.9347 94.1124 73.5659Z" fill="black"/>
<path d="M94.1158 83.3296C94.1158 83.6965 94.4133 83.994 94.7802 83.994C95.1471 83.994 95.4446 83.6965 95.4446 83.3296C95.4446 82.9627 95.1471 82.6652 94.7802 82.6652C94.4133 82.6652 94.1158 82.9627 94.1158 83.3296ZM94.0422 83.3296C94.0422 82.9219 94.3725 82.5916 94.7802 82.5916C95.1879 82.5916 95.5182 82.9219 95.5182 83.3296C95.5182 83.7373 95.1879 84.0676 94.7802 84.0676C94.3725 84.0676 94.0422 83.7373 94.0422 83.3296Z" fill="black"/>
<path d="M94.0525 93.0933C94.0525 93.4949 94.3786 93.821 94.7802 93.821C95.1818 93.821 95.5079 93.4949 95.5079 93.0933C95.5079 92.6917 95.1818 92.3656 94.7802 92.3656C94.3786 92.3656 94.0525 92.6917 94.0525 93.0933ZM93.9716 93.0933C93.9716 92.6467 94.3336 92.2847 94.7802 92.2847C95.2268 92.2847 95.5888 92.6467 95.5888 93.0933C95.5888 93.5399 95.2268 93.9019 94.7802 93.9019C94.3336 93.9019 93.9716 93.5399 93.9716 93.0933Z" fill="black"/>
<path d="M1.68692 0.337916C1.68692 0.151414 1.83795 0 2.02446 0C2.21096 0 2.36199 0.151414 2.36199 0.337916C2.36199 0.524419 2.21096 0.675452 2.02446 0.675452C1.83795 0.675452 1.68692 0.524419 1.68692 0.337916Z" fill="black"/>
<path d="M1.51834 10.1016C1.51834 9.82208 1.74489 9.59553 2.02446 9.59553C2.30402 9.59553 2.53057 9.82208 2.53057 10.1016C2.53057 10.3812 2.30402 10.6078 2.02446 10.6078C1.74489 10.6078 1.51834 10.3812 1.51834 10.1016Z" fill="black"/>
<path d="M1.34938 19.8654C1.34938 19.4927 1.65183 19.1907 2.02446 19.1907C2.39708 19.1907 2.69953 19.4927 2.69953 19.8654C2.69953 20.238 2.39708 20.5401 2.02446 20.5401C1.65183 20.5401 1.34938 20.238 1.34938 19.8654Z" fill="black"/>
<path d="M1.1808 29.6291C1.1808 29.1634 1.55839 28.7854 2.02446 28.7854C2.49052 28.7854 2.86811 29.1634 2.86811 29.6291C2.86811 30.0948 2.49052 30.4727 2.02446 30.4727C1.55839 30.4727 1.1808 30.0948 1.1808 29.6291Z" fill="black"/>
<path d="M1.01223 39.3928C1.01223 38.8337 1.46533 38.3806 2.02446 38.3806C2.58358 38.3806 3.03668 38.8337 3.03668 39.3928C3.03668 39.9519 2.58358 40.405 2.02446 40.405C1.46533 40.405 1.01223 39.9519 1.01223 39.3928Z" fill="black"/>
<path d="M0.843269 49.1565C0.843269 48.5044 1.37227 47.9754 2.02446 47.9754C2.67664 47.9754 3.20564 48.5044 3.20564 49.1565C3.20564 49.8087 2.67664 50.3377 2.02446 50.3377C1.37227 50.3377 0.843269 49.8087 0.843269 49.1565Z" fill="black"/>
<path d="M0.674691 58.9203C0.674691 58.1746 1.27882 57.5705 2.02446 57.5705C2.77009 57.5705 3.37422 58.1746 3.37422 58.9203C3.37422 59.6659 2.77009 60.27 2.02446 60.27C1.27882 60.27 0.674691 59.6659 0.674691 58.9203Z" fill="black"/>
<path d="M0.506114 68.684C0.506114 67.8453 1.18576 67.1657 2.02446 67.1657C2.86315 67.1657 3.5428 67.8453 3.5428 68.684C3.5428 69.5227 2.86315 70.2023 2.02446 70.2023C1.18576 70.2023 0.506114 69.5227 0.506114 68.684Z" fill="black"/>
<path d="M0.337155 78.4477C0.337155 77.516 1.0927 76.7604 2.02446 76.7604C2.95621 76.7604 3.71176 77.516 3.71176 78.4477C3.71176 79.3795 2.95621 80.135 2.02446 80.135C1.0927 80.135 0.337155 79.3795 0.337155 78.4477Z" fill="black"/>
<path d="M0.168578 88.2114C0.168578 87.1866 0.999642 86.3556 2.02446 86.3556C3.04927 86.3556 3.88033 87.1866 3.88033 88.2114C3.88033 89.2363 3.04927 90.0673 2.02446 90.0673C0.999642 90.0673 0.168578 89.2363 0.168578 88.2114Z" fill="black"/>
<path d="M0 97.9752C0 96.8569 0.906199 95.9507 2.02446 95.9507C3.14271 95.9507 4.04891 96.8569 4.04891 97.9752C4.04891 99.093 3.14271 100 2.02446 100C0.906199 100 0 99.093 0 97.9752Z" fill="black"/>
<path d="M11.4789 0.337916C11.4789 0.167051 11.6174 0.0282233 11.7882 0.0282233C11.9591 0.0282233 12.0975 0.167051 12.0975 0.337916C12.0975 0.508782 11.9591 0.647228 11.7882 0.647228C11.6174 0.647228 11.4789 0.508782 11.4789 0.337916Z" fill="black"/>
<path d="M11.3241 10.1016C11.3241 9.84534 11.5319 9.63748 11.7882 9.63748C12.0445 9.63748 12.2524 9.84534 12.2524 10.1016C12.2524 10.3579 12.0445 10.5658 11.7882 10.5658C11.5319 10.5658 11.3241 10.3579 11.3241 10.1016Z" fill="black"/>
<path d="M11.1696 19.8654C11.1696 19.5236 11.4465 19.2467 11.7882 19.2467C12.1299 19.2467 12.4068 19.5236 12.4068 19.8654C12.4068 20.2071 12.1299 20.484 11.7882 20.484C11.4465 20.484 11.1696 20.2071 11.1696 19.8654Z" fill="black"/>
<path d="M11.0151 29.6291C11.0151 29.2019 11.3611 28.8556 11.7882 28.8556C12.2154 28.8556 12.5617 29.2019 12.5617 29.6291C12.5617 30.0563 12.2154 30.4026 11.7882 30.4026C11.3611 30.4026 11.0151 30.0563 11.0151 29.6291Z" fill="black"/>
<path d="M10.8603 39.3928C10.8603 38.8802 11.2756 38.4649 11.7882 38.4649C12.3008 38.4649 12.7162 38.8802 12.7162 39.3928C12.7162 39.9054 12.3008 40.3208 11.7882 40.3208C11.2756 40.3208 10.8603 39.9054 10.8603 39.3928Z" fill="black"/>
<path d="M10.7054 49.1565C10.7054 48.5585 11.1902 48.0738 11.7882 48.0738C12.3862 48.0738 12.871 48.5585 12.871 49.1565C12.871 49.7546 12.3862 50.2393 11.7882 50.2393C11.1902 50.2393 10.7054 49.7546 10.7054 49.1565Z" fill="black"/>
<path d="M10.551 58.9203C10.551 58.2368 11.1048 57.683 11.7882 57.683C12.4717 57.683 13.0255 58.2368 13.0255 58.9203C13.0255 59.6037 12.4717 60.1575 11.7882 60.1575C11.1048 60.1575 10.551 59.6037 10.551 58.9203Z" fill="black"/>
<path d="M10.3961 68.684C10.3961 67.9155 11.0193 67.2919 11.7882 67.2919C12.5571 67.2919 13.1803 67.9155 13.1803 68.684C13.1803 69.4525 12.5571 70.0761 11.7882 70.0761C11.0193 70.0761 10.3961 69.4525 10.3961 68.684Z" fill="black"/>
<path d="M10.2417 78.4477C10.2417 77.5938 10.9343 76.9012 11.7882 76.9012C12.6422 76.9012 13.3348 77.5938 13.3348 78.4477C13.3348 79.3017 12.6422 79.9943 11.7882 79.9943C10.9343 79.9943 10.2417 79.3017 10.2417 78.4477Z" fill="black"/>
<path d="M10.0872 88.2114C10.0872 87.2721 10.8488 86.51 11.7882 86.51C12.7276 86.51 13.4896 87.2721 13.4896 88.2114C13.4896 89.1508 12.7276 89.9125 11.7882 89.9125C10.8488 89.9125 10.0872 89.1508 10.0872 88.2114Z" fill="black"/>
<path d="M9.93234 97.9752C9.93234 96.9504 10.7634 96.1193 11.7882 96.1193C12.813 96.1193 13.6441 96.9504 13.6441 97.9752C13.6441 99.0004 12.813 99.8314 11.7882 99.8314C10.7634 99.8314 9.93234 99.0004 9.93234 97.9752Z" fill="black"/>
<path d="M21.2709 0.337916C21.2709 0.182688 21.3968 0.056828 21.552 0.056828C21.7072 0.056828 21.8331 0.182688 21.8331 0.337916C21.8331 0.493145 21.7072 0.619005 21.552 0.619005C21.3968 0.619005 21.2709 0.493145 21.2709 0.337916Z" fill="black"/>
<path d="M21.1302 10.1016C21.1302 9.86861 21.3189 9.67982 21.552 9.67982C21.785 9.67982 21.9738 9.86861 21.9738 10.1016C21.9738 10.3347 21.785 10.5235 21.552 10.5235C21.3189 10.5235 21.1302 10.3347 21.1302 10.1016Z" fill="black"/>
<path d="M20.9894 19.8654C20.9894 19.5549 21.2415 19.3028 21.552 19.3028C21.8624 19.3028 22.1145 19.5549 22.1145 19.8654C22.1145 20.1758 21.8624 20.4279 21.552 20.4279C21.2415 20.4279 20.9894 20.1758 20.9894 19.8654Z" fill="black"/>
<path d="M20.8491 29.6291C20.8491 29.2408 21.1637 28.9262 21.552 28.9262C21.9402 28.9262 22.2549 29.2408 22.2549 29.6291C22.2549 30.0174 21.9402 30.332 21.552 30.332C21.1637 30.332 20.8491 30.0174 20.8491 29.6291Z" fill="black"/>
<path d="M20.7083 39.3928C20.7083 38.9271 21.0859 38.5492 21.552 38.5492C22.018 38.5492 22.3956 38.9271 22.3956 39.3928C22.3956 39.8585 22.018 40.2365 21.552 40.2365C21.0859 40.2365 20.7083 39.8585 20.7083 39.3928Z" fill="black"/>
<path d="M20.568 49.1565C20.568 48.6131 21.0085 48.1725 21.552 48.1725C22.0955 48.1725 22.536 48.6131 22.536 49.1565C22.536 49.7 22.0955 50.1405 21.552 50.1405C21.0085 50.1405 20.568 49.7 20.568 49.1565Z" fill="black"/>
<path d="M20.4272 58.9203C20.4272 58.299 20.9307 57.7955 21.552 57.7955C22.1733 57.7955 22.6767 58.299 22.6767 58.9203C22.6767 59.5416 22.1733 60.045 21.552 60.045C20.9307 60.045 20.4272 59.5416 20.4272 58.9203Z" fill="black"/>
<path d="M20.2865 68.684C20.2865 67.9853 20.8533 67.4185 21.552 67.4185C22.2507 67.4185 22.8175 67.9853 22.8175 68.684C22.8175 69.3827 22.2507 69.9495 21.552 69.9495C20.8533 69.9495 20.2865 69.3827 20.2865 68.684Z" fill="black"/>
<path d="M20.1462 78.4477C20.1462 77.6712 20.7755 77.0419 21.552 77.0419C22.3285 77.0419 22.9578 77.6712 22.9578 78.4477C22.9578 79.2242 22.3285 79.8535 21.552 79.8535C20.7755 79.8535 20.1462 79.2242 20.1462 78.4477Z" fill="black"/>
<path d="M20.0054 88.2114C20.0054 87.3575 20.698 86.6649 21.552 86.6649C22.4059 86.6649 23.0985 87.3575 23.0985 88.2114C23.0985 89.0654 22.4059 89.758 21.552 89.758C20.698 89.758 20.0054 89.0654 20.0054 88.2114Z" fill="black"/>
<path d="M19.8647 97.9752C19.8647 97.0434 20.6202 96.2879 21.552 96.2879C22.4837 96.2879 23.2393 97.0434 23.2393 97.9752C23.2393 98.9065 22.4837 99.6625 21.552 99.6625C20.6202 99.6625 19.8647 98.9065 19.8647 97.9752Z" fill="black"/>
<path d="M31.0625 0.337916C31.0625 0.198326 31.1758 0.0850512 31.3157 0.0850512C31.4557 0.0850512 31.569 0.198326 31.569 0.337916C31.569 0.477889 31.4557 0.591163 31.3157 0.591163C31.1758 0.591163 31.0625 0.477889 31.0625 0.337916Z" fill="black"/>
<path d="M30.9363 10.1016C30.9363 9.89188 31.106 9.72215 31.3157 9.72215C31.5255 9.72215 31.6952 9.89188 31.6952 10.1016C31.6952 10.3114 31.5255 10.4811 31.3157 10.4811C31.106 10.4811 30.9363 10.3114 30.9363 10.1016Z" fill="black"/>
<path d="M30.8096 19.8654C30.8096 19.5858 31.0362 19.3593 31.3157 19.3593C31.5953 19.3593 31.8219 19.5858 31.8219 19.8654C31.8219 20.1449 31.5953 20.3715 31.3157 20.3715C31.0362 20.3715 30.8096 20.1449 30.8096 19.8654Z" fill="black"/>
<path d="M30.683 29.6291C30.683 29.2797 30.9664 28.9964 31.3157 28.9964C31.6651 28.9964 31.9485 29.2797 31.9485 29.6291C31.9485 29.9785 31.6651 30.2618 31.3157 30.2618C30.9664 30.2618 30.683 29.9785 30.683 29.6291Z" fill="black"/>
<path d="M30.5564 39.3928C30.5564 38.9737 30.8966 38.6335 31.3157 38.6335C31.7349 38.6335 32.0751 38.9737 32.0751 39.3928C32.0751 39.8124 31.7349 40.1522 31.3157 40.1522C30.8966 40.1522 30.5564 39.8124 30.5564 39.3928Z" fill="black"/>
<path d="M30.4301 49.1565C30.4301 48.6672 30.8264 48.2709 31.3157 48.2709C31.8051 48.2709 32.2013 48.6672 32.2013 49.1565C32.2013 49.6459 31.8051 50.0421 31.3157 50.0421C30.8264 50.0421 30.4301 49.6459 30.4301 49.1565Z" fill="black"/>
<path d="M30.3035 58.9203C30.3035 58.3611 30.7566 57.908 31.3157 57.908C31.8749 57.908 32.328 58.3611 32.328 58.9203C32.328 59.4794 31.8749 59.9325 31.3157 59.9325C30.7566 59.9325 30.3035 59.4794 30.3035 58.9203Z" fill="black"/>
<path d="M30.1769 68.684C30.1769 68.0551 30.6868 67.5452 31.3157 67.5452C31.9447 67.5452 32.4546 68.0551 32.4546 68.684C32.4546 69.3129 31.9447 69.8228 31.3157 69.8228C30.6868 69.8228 30.1769 69.3129 30.1769 68.684Z" fill="black"/>
<path d="M30.0503 78.4477C30.0503 77.749 30.617 77.1822 31.3157 77.1822C32.0145 77.1822 32.5812 77.749 32.5812 78.4477C32.5812 79.1464 32.0145 79.7132 31.3157 79.7132C30.617 79.7132 30.0503 79.1464 30.0503 78.4477Z" fill="black"/>
<path d="M29.9236 88.2114C29.9236 87.4429 30.5468 86.8194 31.3157 86.8194C32.0843 86.8194 32.7078 87.4429 32.7078 88.2114C32.7078 88.98 32.0843 89.6035 31.3157 89.6035C30.5468 89.6035 29.9236 88.98 29.9236 88.2114Z" fill="black"/>
<path d="M29.7974 97.9752C29.7974 97.1365 30.477 96.4568 31.3157 96.4568C32.1544 96.4568 32.8341 97.1365 32.8341 97.9752C32.8341 98.8139 32.1544 99.4935 31.3157 99.4935C30.477 99.4935 29.7974 98.8139 29.7974 97.9752Z" fill="black"/>
<path d="M40.8545 0.337916C40.8545 0.213963 40.9552 0.113275 41.0795 0.113275C41.2038 0.113275 41.3045 0.213963 41.3045 0.337916C41.3045 0.462251 41.2038 0.56294 41.0795 0.56294C40.9552 0.56294 40.8545 0.462251 40.8545 0.337916Z" fill="black"/>
<path d="M40.742 10.1016C40.742 9.91514 40.8934 9.76411 41.0795 9.76411C41.2656 9.76411 41.417 9.91514 41.417 10.1016C41.417 10.2881 41.2656 10.4392 41.0795 10.4392C40.8934 10.4392 40.742 10.2881 40.742 10.1016Z" fill="black"/>
<path d="M40.6295 19.8654C40.6295 19.6167 40.8308 19.4153 41.0795 19.4153C41.3282 19.4153 41.5296 19.6167 41.5296 19.8654C41.5296 20.114 41.3282 20.3154 41.0795 20.3154C40.8308 20.3154 40.6295 20.114 40.6295 19.8654Z" fill="black"/>
<path d="M40.5169 29.6291C40.5169 29.3186 40.7687 29.0665 41.0795 29.0665C41.3903 29.0665 41.6421 29.3186 41.6421 29.6291C41.6421 29.9395 41.3903 30.1917 41.0795 30.1917C40.7687 30.1917 40.5169 29.9395 40.5169 29.6291Z" fill="black"/>
<path d="M40.4048 39.3928C40.4048 39.0202 40.7069 38.7181 41.0795 38.7181C41.4521 38.7181 41.7542 39.0202 41.7542 39.3928C41.7542 39.7654 41.4521 40.0675 41.0795 40.0675C40.7069 40.0675 40.4048 39.7654 40.4048 39.3928Z" fill="black"/>
<path d="M40.2923 49.1565C40.2923 48.7218 40.6447 48.3693 41.0795 48.3693C41.5143 48.3693 41.8667 48.7218 41.8667 49.1565C41.8667 49.5913 41.5143 49.9437 41.0795 49.9437C40.6447 49.9437 40.2923 49.5913 40.2923 49.1565Z" fill="black"/>
<path d="M40.1798 58.9203C40.1798 58.4233 40.5825 58.0206 41.0795 58.0206C41.5765 58.0206 41.9792 58.4233 41.9792 58.9203C41.9792 59.4172 41.5765 59.82 41.0795 59.82C40.5825 59.82 40.1798 59.4172 40.1798 58.9203Z" fill="black"/>
<path d="M40.0673 68.684C40.0673 68.1249 40.5204 67.6718 41.0795 67.6718C41.6386 67.6718 42.0917 68.1249 42.0917 68.684C42.0917 69.2431 41.6386 69.6962 41.0795 69.6962C40.5204 69.6962 40.0673 69.2431 40.0673 68.684Z" fill="black"/>
<path d="M39.9548 78.4477C39.9548 77.8264 40.4582 77.323 41.0795 77.323C41.7008 77.323 42.2042 77.8264 42.2042 78.4477C42.2042 79.069 41.7008 79.5725 41.0795 79.5725C40.4582 79.5725 39.9548 79.069 39.9548 78.4477Z" fill="black"/>
<path d="M39.8423 88.2114C39.8423 87.528 40.396 86.9742 41.0795 86.9742C41.763 86.9742 42.3168 87.528 42.3168 88.2114C42.3168 88.8949 41.763 89.4487 41.0795 89.4487C40.396 89.4487 39.8423 88.8949 39.8423 88.2114Z" fill="black"/>
<path d="M39.7297 97.9752C39.7297 97.2295 40.3339 96.6254 41.0795 96.6254C41.8251 96.6254 42.4293 97.2295 42.4293 97.9752C42.4293 98.72 41.8251 99.3245 41.0795 99.3245C40.3339 99.3245 39.7297 98.72 39.7297 97.9752Z" fill="black"/>
<path d="M50.6465 0.337916C50.6465 0.2296 50.7346 0.140735 50.8433 0.140735C50.952 0.140735 51.0401 0.2296 51.0401 0.337916C51.0401 0.446614 50.952 0.534717 50.8433 0.534717C50.7346 0.534717 50.6465 0.446614 50.6465 0.337916Z" fill="black"/>
<path d="M50.5481 10.1016C50.5481 9.9384 50.68 9.80644 50.8433 9.80644C51.0065 9.80644 51.1385 9.9384 51.1385 10.1016C51.1385 10.2649 51.0065 10.3968 50.8433 10.3968C50.68 10.3968 50.5481 10.2649 50.5481 10.1016Z" fill="black"/>
<path d="M50.4497 19.8654C50.4497 19.648 50.6259 19.4718 50.8433 19.4718C51.0607 19.4718 51.2369 19.648 51.2369 19.8654C51.2369 20.0828 51.0607 20.259 50.8433 20.259C50.6259 20.259 50.4497 20.0828 50.4497 19.8654Z" fill="black"/>
<path d="M50.3513 29.6291C50.3513 29.3572 50.5717 29.1371 50.8433 29.1371C51.1148 29.1371 51.3353 29.3572 51.3353 29.6291C51.3353 29.901 51.1148 30.1211 50.8433 30.1211C50.5717 30.1211 50.3513 29.901 50.3513 29.6291Z" fill="black"/>
<path d="M50.2529 39.3928C50.2529 39.0667 50.5172 38.8024 50.8433 38.8024C51.1694 38.8024 51.4337 39.0667 51.4337 39.3928C51.4337 39.7189 51.1694 39.9832 50.8433 39.9832C50.5172 39.9832 50.2529 39.7189 50.2529 39.3928Z" fill="black"/>
<path d="M50.1545 49.1565C50.1545 48.7763 50.463 48.4677 50.8433 48.4677C51.2235 48.4677 51.5321 48.7763 51.5321 49.1565C51.5321 49.5368 51.2235 49.8453 50.8433 49.8453C50.463 49.8453 50.1545 49.5368 50.1545 49.1565Z" fill="black"/>
<path d="M50.0561 58.9203C50.0561 58.4855 50.4085 58.1331 50.8433 58.1331C51.2781 58.1331 51.6305 58.4855 51.6305 58.9203C51.6305 59.3551 51.2781 59.7075 50.8433 59.7075C50.4085 59.7075 50.0561 59.3551 50.0561 58.9203Z" fill="black"/>
<path d="M49.9577 68.684C49.9577 68.1947 50.3539 67.7984 50.8433 67.7984C51.3326 67.7984 51.7289 68.1947 51.7289 68.684C51.7289 69.1733 51.3326 69.5696 50.8433 69.5696C50.3539 69.5696 49.9577 69.1733 49.9577 68.684Z" fill="black"/>
<path d="M49.8593 78.4477C49.8593 77.9042 50.2998 77.4637 50.8433 77.4637C51.3868 77.4637 51.8273 77.9042 51.8273 78.4477C51.8273 78.9912 51.3868 79.4317 50.8433 79.4317C50.2998 79.4317 49.8593 78.9912 49.8593 78.4477Z" fill="black"/>
<path d="M49.7605 88.2114C49.7605 87.6134 50.2452 87.1287 50.8433 87.1287C51.4413 87.1287 51.9261 87.6134 51.9261 88.2114C51.9261 88.8095 51.4413 89.2942 50.8433 89.2942C50.2452 89.2942 49.7605 88.8095 49.7605 88.2114Z" fill="black"/>
<path d="M49.6621 97.9752C49.6621 97.323 50.1911 96.794 50.8433 96.794C51.4955 96.794 52.0245 97.323 52.0245 97.9752C52.0245 98.6273 51.4955 99.1567 50.8433 99.1567C50.1911 99.1567 49.6621 98.6273 49.6621 97.9752Z" fill="black"/>
<path d="M60.4381 0.337916C60.4381 0.245237 60.514 0.168958 60.607 0.168958C60.7001 0.168958 60.776 0.245237 60.776 0.337916C60.776 0.430977 60.7001 0.506493 60.607 0.506493C60.514 0.506493 60.4381 0.430977 60.4381 0.337916Z" fill="black"/>
<path d="M60.3538 10.1016C60.3538 9.96167 60.4671 9.8484 60.607 9.8484C60.747 9.8484 60.8603 9.96167 60.8603 10.1016C60.8603 10.2416 60.747 10.3549 60.607 10.3549C60.4671 10.3549 60.3538 10.2416 60.3538 10.1016Z" fill="black"/>
<path d="M60.2695 19.8654C60.2695 19.6789 60.4209 19.5278 60.607 19.5278C60.7932 19.5278 60.9446 19.6789 60.9446 19.8654C60.9446 20.0519 60.7932 20.2029 60.607 20.2029C60.4209 20.2029 60.2695 20.0519 60.2695 19.8654Z" fill="black"/>
<path d="M60.1852 29.6291C60.1852 29.3961 60.374 29.2073 60.607 29.2073C60.8401 29.2073 61.0289 29.3961 61.0289 29.6291C61.0289 29.8621 60.8401 30.0509 60.607 30.0509C60.374 30.0509 60.1852 29.8621 60.1852 29.6291Z" fill="black"/>
<path d="M60.1009 39.3928C60.1009 39.1133 60.3275 38.8867 60.607 38.8867C60.8866 38.8867 61.1131 39.1133 61.1131 39.3928C61.1131 39.6724 60.8866 39.8989 60.607 39.8989C60.3275 39.8989 60.1009 39.6724 60.1009 39.3928Z" fill="black"/>
<path d="M60.0166 49.1565C60.0166 48.8305 60.2809 48.5661 60.607 48.5661C60.9331 48.5661 61.1974 48.8305 61.1974 49.1565C61.1974 49.4826 60.9331 49.7469 60.607 49.7469C60.2809 49.7469 60.0166 49.4826 60.0166 49.1565Z" fill="black"/>
<path d="M59.9323 58.9203C59.9323 58.5476 60.2344 58.2456 60.607 58.2456C60.9797 58.2456 61.2817 58.5476 61.2817 58.9203C61.2817 59.2929 60.9797 59.595 60.607 59.595C60.2344 59.595 59.9323 59.2929 59.9323 58.9203Z" fill="black"/>
<path d="M59.8477 68.684C59.8477 68.2645 60.1875 67.9246 60.607 67.9246C61.0266 67.9246 61.3664 68.2645 61.3664 68.684C61.3664 69.1035 61.0266 69.4434 60.607 69.4434C60.1875 69.4434 59.8477 69.1035 59.8477 68.684Z" fill="black"/>
<path d="M59.7634 78.4477C59.7634 77.982 60.1413 77.6041 60.607 77.6041C61.0727 77.6041 61.4507 77.982 61.4507 78.4477C61.4507 78.9134 61.0727 79.2914 60.607 79.2914C60.1413 79.2914 59.7634 78.9134 59.7634 78.4477Z" fill="black"/>
<path d="M59.6791 88.2114C59.6791 87.6989 60.0944 87.2835 60.607 87.2835C61.1196 87.2835 61.535 87.6989 61.535 88.2114C61.535 88.724 61.1196 89.1394 60.607 89.1394C60.0944 89.1394 59.6791 88.724 59.6791 88.2114Z" fill="black"/>
<path d="M59.5948 97.9752C59.5948 97.416 60.0479 96.9629 60.607 96.9629C61.1662 96.9629 61.6193 97.416 61.6193 97.9752C61.6193 98.5347 61.1662 98.9878 60.607 98.9878C60.0479 98.9878 59.5948 98.5347 59.5948 97.9752Z" fill="black"/>
<path d="M70.2301 0.337916C70.2301 0.25973 70.293 0.197182 70.3708 0.197182C70.4486 0.197182 70.5115 0.25973 70.5115 0.337916C70.5115 0.415721 70.4486 0.478651 70.3708 0.478651C70.293 0.478651 70.2301 0.415721 70.2301 0.337916Z" fill="black"/>
<path d="M70.1599 10.1016C70.1599 9.98532 70.2545 9.89073 70.3708 9.89073C70.4871 9.89073 70.5817 9.98532 70.5817 10.1016C70.5817 10.218 70.4871 10.3126 70.3708 10.3126C70.2545 10.3126 70.1599 10.218 70.1599 10.1016Z" fill="black"/>
<path d="M70.0897 19.8654C70.0897 19.7101 70.2156 19.5843 70.3708 19.5843C70.526 19.5843 70.6519 19.7101 70.6519 19.8654C70.6519 20.0206 70.526 20.1465 70.3708 20.1465C70.2156 20.1465 70.0897 20.0206 70.0897 19.8654Z" fill="black"/>
<path d="M70.0191 29.6291C70.0191 29.435 70.1767 29.2774 70.3708 29.2774C70.5649 29.2774 70.7224 29.435 70.7224 29.6291C70.7224 29.8232 70.5649 29.9807 70.3708 29.9807C70.1767 29.9807 70.0191 29.8232 70.0191 29.6291Z" fill="black"/>
<path d="M69.949 39.3928C69.949 39.1598 70.1378 38.971 70.3708 38.971C70.6038 38.971 70.7926 39.1598 70.7926 39.3928C70.7926 39.6259 70.6038 39.8146 70.3708 39.8146C70.1378 39.8146 69.949 39.6259 69.949 39.3928Z" fill="black"/>
<path d="M69.8788 49.1565C69.8788 48.885 70.0992 48.6645 70.3708 48.6645C70.6423 48.6645 70.8628 48.885 70.8628 49.1565C70.8628 49.4281 70.6423 49.6485 70.3708 49.6485C70.0992 49.6485 69.8788 49.4281 69.8788 49.1565Z" fill="black"/>
<path d="M69.8082 58.9203C69.8082 58.6094 70.06 58.3577 70.3708 58.3577C70.6816 58.3577 70.9334 58.6094 70.9334 58.9203C70.9334 59.2311 70.6816 59.4828 70.3708 59.4828C70.06 59.4828 69.8082 59.2311 69.8082 58.9203Z" fill="black"/>
<path d="M69.7381 68.684C69.7381 68.3346 70.0214 68.0513 70.3708 68.0513C70.7202 68.0513 71.0035 68.3346 71.0035 68.684C71.0035 69.0333 70.7202 69.3167 70.3708 69.3167C70.0214 69.3167 69.7381 69.0333 69.7381 68.684Z" fill="black"/>
<path d="M69.6679 78.4477C69.6679 78.0595 69.9825 77.7448 70.3708 77.7448C70.7591 77.7448 71.0737 78.0595 71.0737 78.4477C71.0737 78.836 70.7591 79.1506 70.3708 79.1506C69.9825 79.1506 69.6679 78.836 69.6679 78.4477Z" fill="black"/>
<path d="M69.5973 88.2114C69.5973 87.7843 69.9436 87.438 70.3708 87.438C70.798 87.438 71.1443 87.7843 71.1443 88.2114C71.1443 88.6386 70.798 88.9845 70.3708 88.9845C69.9436 88.9845 69.5973 88.6386 69.5973 88.2114Z" fill="black"/>
<path d="M69.5271 97.9752C69.5271 97.5095 69.9051 97.1315 70.3708 97.1315C70.8365 97.1315 71.2144 97.5095 71.2144 97.9752C71.2144 98.4408 70.8365 98.8188 70.3708 98.8188C69.9051 98.8188 69.5271 98.4408 69.5271 97.9752Z" fill="black"/>
<path d="M80.022 0.337916C80.022 0.275368 80.0724 0.225786 80.1346 0.225786C80.1967 0.225786 80.2471 0.275368 80.2471 0.337916C80.2471 0.400084 80.1967 0.450428 80.1346 0.450428C80.0724 0.450428 80.022 0.400084 80.022 0.337916Z" fill="black"/>
<path d="M79.9656 10.1016C79.9656 10.0086 80.0415 9.93307 80.1346 9.93307C80.2276 9.93307 80.3035 10.0086 80.3035 10.1016C80.3035 10.1947 80.2276 10.2702 80.1346 10.2702C80.0415 10.2702 79.9656 10.1947 79.9656 10.1016Z" fill="black"/>
<path d="M79.9095 19.8654C79.9095 19.741 80.0102 19.6403 80.1346 19.6403C80.2589 19.6403 80.3596 19.741 80.3596 19.8654C80.3596 19.9897 80.2589 20.0904 80.1346 20.0904C80.0102 20.0904 79.9095 19.9897 79.9095 19.8654Z" fill="black"/>
<path d="M79.8535 29.6291C79.8535 29.4739 79.9793 29.348 80.1346 29.348C80.2898 29.348 80.4156 29.4739 80.4156 29.6291C80.4156 29.7843 80.2898 29.9102 80.1346 29.9102C79.9793 29.9102 79.8535 29.7843 79.8535 29.6291Z" fill="black"/>
<path d="M79.797 39.3928C79.797 39.2067 79.9484 39.0553 80.1346 39.0553C80.3207 39.0553 80.4721 39.2067 80.4721 39.3928C80.4721 39.5789 80.3207 39.7304 80.1346 39.7304C79.9484 39.7304 79.797 39.5789 79.797 39.3928Z" fill="black"/>
<path d="M79.741 49.1565C79.741 48.9392 79.9172 48.7629 80.1346 48.7629C80.352 48.7629 80.5282 48.9392 80.5282 49.1565C80.5282 49.3739 80.352 49.5501 80.1346 49.5501C79.9172 49.5501 79.741 49.3739 79.741 49.1565Z" fill="black"/>
<path d="M79.6845 58.9203C79.6845 58.6716 79.8859 58.4702 80.1346 58.4702C80.3832 58.4702 80.5846 58.6716 80.5846 58.9203C80.5846 59.1689 80.3832 59.3703 80.1346 59.3703C79.8859 59.3703 79.6845 59.1689 79.6845 58.9203Z" fill="black"/>
<path d="M79.6284 68.684C79.6284 68.4044 79.855 68.1779 80.1346 68.1779C80.4141 68.1779 80.6407 68.4044 80.6407 68.684C80.6407 68.9636 80.4141 69.1901 80.1346 69.1901C79.855 69.1901 79.6284 68.9636 79.6284 68.684Z" fill="black"/>
<path d="M79.572 78.4477C79.572 78.1369 79.8237 77.8852 80.1346 77.8852C80.4454 77.8852 80.6971 78.1369 80.6971 78.4477C80.6971 78.7586 80.4454 79.0103 80.1346 79.0103C79.8237 79.0103 79.572 78.7586 79.572 78.4477Z" fill="black"/>
<path d="M79.5159 88.2114C79.5159 87.8697 79.7928 87.5928 80.1346 87.5928C80.4763 87.5928 80.7532 87.8697 80.7532 88.2114C80.7532 88.5532 80.4763 88.8301 80.1346 88.8301C79.7928 88.8301 79.5159 88.5532 79.5159 88.2114Z" fill="black"/>
<path d="M79.4599 97.9752C79.4599 97.6026 79.7619 97.3001 80.1346 97.3001C80.5072 97.3001 80.8092 97.6026 80.8092 97.9752C80.8092 98.3482 80.5072 98.6499 80.1346 98.6499C79.7619 98.6499 79.4599 98.3482 79.4599 97.9752Z" fill="black"/>
<path d="M89.814 0.337916C89.814 0.291005 89.8518 0.254009 89.8983 0.254009C89.9449 0.254009 89.9826 0.291005 89.9826 0.337916C89.9826 0.384447 89.9449 0.422205 89.8983 0.422205C89.8518 0.422205 89.814 0.384447 89.814 0.337916Z" fill="black"/>
<path d="M89.7717 10.1016C89.7717 10.0318 89.8285 9.97502 89.8983 9.97502C89.9681 9.97502 90.0249 10.0318 90.0249 10.1016C90.0249 10.1714 89.9681 10.2283 89.8983 10.2283C89.8285 10.2283 89.7717 10.1714 89.7717 10.1016Z" fill="black"/>
<path d="M89.7294 19.8654C89.7294 19.7723 89.8053 19.6968 89.8983 19.6968C89.9914 19.6968 90.0673 19.7723 90.0673 19.8654C90.0673 19.9584 89.9914 20.0339 89.8983 20.0339C89.8053 20.0339 89.7294 19.9584 89.7294 19.8654Z" fill="black"/>
<path d="M89.6874 29.6291C89.6874 29.5128 89.782 29.4182 89.8983 29.4182C90.0146 29.4182 90.1092 29.5128 90.1092 29.6291C90.1092 29.7454 90.0146 29.84 89.8983 29.84C89.782 29.84 89.6874 29.7454 89.6874 29.6291Z" fill="black"/>
<path d="M89.6451 39.3928C89.6451 39.2528 89.7583 39.1396 89.8983 39.1396C90.0383 39.1396 90.1516 39.2528 90.1516 39.3928C90.1516 39.5328 90.0383 39.6461 89.8983 39.6461C89.7583 39.6461 89.6451 39.5328 89.6451 39.3928Z" fill="black"/>
<path d="M89.6031 49.1565C89.6031 48.9933 89.7351 48.8613 89.8983 48.8613C90.0616 48.8613 90.1935 48.9933 90.1935 49.1565C90.1935 49.3198 90.0616 49.4517 89.8983 49.4517C89.7351 49.4517 89.6031 49.3198 89.6031 49.1565Z" fill="black"/>
<path d="M89.5608 58.9203C89.5608 58.7341 89.7122 58.5827 89.8983 58.5827C90.0844 58.5827 90.2359 58.7341 90.2359 58.9203C90.2359 59.1064 90.0844 59.2578 89.8983 59.2578C89.7122 59.2578 89.5608 59.1064 89.5608 58.9203Z" fill="black"/>
<path d="M89.5188 68.684C89.5188 68.4742 89.6886 68.3045 89.8983 68.3045C90.1081 68.3045 90.2778 68.4742 90.2778 68.684C90.2778 68.8938 90.1081 69.0635 89.8983 69.0635C89.6886 69.0635 89.5188 68.8938 89.5188 68.684Z" fill="black"/>
<path d="M89.4765 78.4477C89.4765 78.2147 89.6653 78.0259 89.8983 78.0259C90.1314 78.0259 90.3201 78.2147 90.3201 78.4477C90.3201 78.6807 90.1314 78.8695 89.8983 78.8695C89.6653 78.8695 89.4765 78.6807 89.4765 78.4477Z" fill="black"/>
<path d="M89.4342 88.2114C89.4342 87.9551 89.642 87.7473 89.8983 87.7473C90.1546 87.7473 90.3625 87.9551 90.3625 88.2114C90.3625 88.4677 90.1546 88.6756 89.8983 88.6756C89.642 88.6756 89.4342 88.4677 89.4342 88.2114Z" fill="black"/>
<path d="M89.3922 97.9752C89.3922 97.6956 89.6188 97.4691 89.8983 97.4691C90.1779 97.4691 90.4044 97.6956 90.4044 97.9752C90.4044 98.2543 90.1779 98.4809 89.8983 98.4809C89.6188 98.4809 89.3922 98.2543 89.3922 97.9752Z" fill="black"/>
<path d="M99.606 0.337916C99.606 0.306642 99.6312 0.28147 99.6621 0.28147C99.6934 0.28147 99.7185 0.306642 99.7185 0.337916C99.7185 0.368809 99.6934 0.393982 99.6621 0.393982C99.6312 0.393982 99.606 0.368809 99.606 0.337916Z" fill="black"/>
<path d="M99.5778 10.1016C99.5778 10.0551 99.6155 10.0174 99.6621 10.0174C99.709 10.0174 99.746 10.0551 99.746 10.1016C99.746 10.1482 99.709 10.1859 99.6621 10.1859C99.6155 10.1859 99.5778 10.1482 99.5778 10.1016Z" fill="black"/>
<path d="M99.5496 19.8654C99.5496 19.8032 99.5999 19.7529 99.6621 19.7529C99.7246 19.7529 99.7742 19.8032 99.7742 19.8654C99.7742 19.9275 99.7246 19.9779 99.6621 19.9779C99.5999 19.9779 99.5496 19.9275 99.5496 19.8654Z" fill="black"/>
<path d="M99.5213 29.6291C99.5213 29.5513 99.5843 29.4884 99.6621 29.4884C99.7391 29.4884 99.8028 29.5513 99.8028 29.6291C99.8028 29.7069 99.7391 29.7698 99.6621 29.7698C99.5843 29.7698 99.5213 29.7069 99.5213 29.6291Z" fill="black"/>
<path d="M99.4931 39.3928C99.4931 39.2998 99.569 39.2242 99.6621 39.2242C99.7548 39.2242 99.831 39.2998 99.831 39.3928C99.831 39.4859 99.7548 39.5614 99.6621 39.5614C99.569 39.5614 99.4931 39.4859 99.4931 39.3928Z" fill="black"/>
<path d="M99.4653 49.1565C99.4653 49.0479 99.5534 48.9597 99.6621 48.9597C99.7704 48.9597 99.8593 49.0479 99.8593 49.1565C99.8593 49.2652 99.7704 49.3533 99.6621 49.3533C99.5534 49.3533 99.4653 49.2652 99.4653 49.1565Z" fill="black"/>
<path d="M99.437 58.9203C99.437 58.7959 99.5377 58.6952 99.6621 58.6952C99.786 58.6952 99.8867 58.7959 99.8867 58.9203C99.8867 59.0446 99.786 59.1453 99.6621 59.1453C99.5377 59.1453 99.437 59.0446 99.437 58.9203Z" fill="black"/>
<path d="M99.4088 68.684C99.4088 68.544 99.5221 68.4308 99.6621 68.4308C99.8017 68.4308 99.9149 68.544 99.9149 68.684C99.9149 68.824 99.8017 68.9372 99.6621 68.9372C99.5221 68.9372 99.4088 68.824 99.4088 68.684Z" fill="black"/>
<path d="M99.381 78.4477C99.381 78.2925 99.5068 78.1666 99.6621 78.1666C99.8173 78.1666 99.9432 78.2925 99.9432 78.4477C99.9432 78.6029 99.8173 78.7288 99.6621 78.7288C99.5068 78.7288 99.381 78.6029 99.381 78.4477Z" fill="black"/>
<path d="M99.3528 88.2114C99.3528 88.0406 99.4912 87.9021 99.6621 87.9021C99.8329 87.9021 99.9718 88.0406 99.9718 88.2114C99.9718 88.3823 99.8329 88.5208 99.6621 88.5208C99.4912 88.5208 99.3528 88.3823 99.3528 88.2114Z" fill="black"/>
<path d="M99.3245 97.9752C99.3245 97.7891 99.476 97.6376 99.6621 97.6376C99.8486 97.6376 100 97.7891 100 97.9752C100 98.1617 99.8486 98.3131 99.6621 98.3131C99.476 98.3131 99.3245 98.1617 99.3245 97.9752Z" fill="black"/>
</svg>
