<svg width="93" height="8" viewBox="0 0 93 8" fill="none" xmlns="http://www.w3.org/2000/svg">
<path d="M0.445287 4.06506C0.445287 5.91368 1.94418 7.4118 3.79243 7.4118C5.64068 7.4118 7.13957 5.91368 7.13957 4.06506C7.13957 2.21643 5.64068 0.718307 3.79243 0.718307C1.94418 0.718307 0.445287 2.21643 0.445287 4.06506ZM0.0734253 4.06506C0.0734253 2.01124 1.7386 0.346069 3.79243 0.346069C5.84625 0.346069 7.51143 2.01124 7.51143 4.06506C7.51143 6.11887 5.84625 7.78404 3.79243 7.78404C1.7386 7.78404 0.0734253 6.11887 0.0734253 4.06506Z" fill="black"/>
<path d="M10.5004 4.06506C10.5004 5.75274 11.8685 7.1208 13.5562 7.1208C15.2439 7.1208 16.6119 5.75274 16.6119 4.06506C16.6119 2.37739 15.2439 1.00893 13.5562 1.00893C11.8685 1.00893 10.5004 2.37739 10.5004 4.06506ZM10.1606 4.06506C10.1606 2.18974 11.6809 0.669495 13.5562 0.669495C15.4315 0.669495 16.9518 2.18974 16.9518 4.06506C16.9518 5.94039 15.4315 7.46062 13.5562 7.46062C11.6809 7.46062 10.1606 5.94039 10.1606 4.06506Z" fill="black"/>
<path d="M20.5552 4.06506C20.5552 5.59216 21.7928 6.8298 23.32 6.8298C24.8471 6.8298 26.0847 5.59216 26.0847 4.06506C26.0847 2.53795 24.8471 1.30032 23.32 1.30032C21.7928 1.30032 20.5552 2.53795 20.5552 4.06506ZM20.2478 4.06506C20.2478 2.36823 21.6231 0.992912 23.32 0.992912C25.0168 0.992912 26.3921 2.36823 26.3921 4.06506C26.3921 5.76188 25.0168 7.13719 23.32 7.13719C21.6231 7.13719 20.2478 5.76188 20.2478 4.06506Z" fill="black"/>
<path d="M30.61 4.06506C30.61 5.43121 31.7176 6.5388 33.0837 6.5388C34.4499 6.5388 35.5574 5.43121 35.5574 4.06506C35.5574 2.6989 34.4499 1.59132 33.0837 1.59132C31.7176 1.59132 30.61 2.6989 30.61 4.06506ZM30.335 4.06506C30.335 2.5471 31.5658 1.31634 33.0837 1.31634C34.6017 1.31634 35.8324 2.5471 35.8324 4.06506C35.8324 5.58301 34.6017 6.81377 33.0837 6.81377C31.5658 6.81377 30.335 5.58301 30.335 4.06506Z" fill="black"/>
<path d="M40.6647 4.06506C40.6647 5.27065 41.6419 6.24778 42.8475 6.24778C44.0531 6.24778 45.0302 5.27065 45.0302 4.06506C45.0302 2.85946 44.0531 1.88232 42.8475 1.88232C41.6419 1.88232 40.6647 2.85946 40.6647 4.06506ZM40.4222 4.06506C40.4222 2.72559 41.508 1.63976 42.8475 1.63976C44.1869 1.63976 45.2728 2.72559 45.2728 4.06506C45.2728 5.40452 44.1869 6.49035 42.8475 6.49035C41.508 6.49035 40.4222 5.40452 40.4222 4.06506Z" fill="black"/>
<path d="M50.7195 4.06506C50.7195 5.1097 51.5666 5.95678 52.6112 5.95678C53.6559 5.95678 54.503 5.1097 54.503 4.06506C54.503 3.02041 53.6559 2.17333 52.6112 2.17333C51.5666 2.17333 50.7195 3.02041 50.7195 4.06506ZM50.5094 4.06506C50.5094 2.90409 51.4503 1.96319 52.6112 1.96319C53.7722 1.96319 54.7131 2.90409 54.7131 4.06506C54.7131 5.22602 53.7722 6.16692 52.6112 6.16692C51.4503 6.16692 50.5094 5.22602 50.5094 4.06506Z" fill="black"/>
<path d="M60.7743 4.06506C60.7743 4.94914 61.4909 5.66578 62.375 5.66578C63.2591 5.66578 63.9757 4.94914 63.9757 4.06506C63.9757 3.18099 63.2591 2.46434 62.375 2.46434C61.4909 2.46434 60.7743 3.18099 60.7743 4.06506ZM60.5965 4.06506C60.5965 3.08259 61.3925 2.28661 62.375 2.28661C63.3575 2.28661 64.1535 3.08259 64.1535 4.06506C64.1535 5.04754 63.3575 5.84351 62.375 5.84351C61.3925 5.84351 60.5965 5.04754 60.5965 4.06506Z" fill="black"/>
<path d="M70.829 4.06506C70.829 4.78818 71.4156 5.37477 72.1388 5.37477C72.8619 5.37477 73.4485 4.78818 73.4485 4.06506C73.4485 3.34193 72.8619 2.75534 72.1388 2.75534C71.4156 2.75534 70.829 3.34193 70.829 4.06506ZM70.6837 4.06506C70.6837 3.26146 71.3352 2.61003 72.1388 2.61003C72.9424 2.61003 73.5938 3.26146 73.5938 4.06506C73.5938 4.86866 72.9424 5.52008 72.1388 5.52008C71.3352 5.52008 70.6837 4.86866 70.6837 4.06506Z" fill="black"/>
<path d="M80.8838 4.06506C80.8838 4.62762 81.34 5.08377 81.9025 5.08377C82.4651 5.08377 82.9212 4.62762 82.9212 4.06506C82.9212 3.5025 82.4651 3.04635 81.9025 3.04635C81.34 3.04635 80.8838 3.5025 80.8838 4.06506ZM80.7705 4.06506C80.7705 3.43996 81.2774 2.93307 81.9025 2.93307C82.5276 2.93307 83.0345 3.43996 83.0345 4.06506C83.0345 4.69017 82.5276 5.19704 81.9025 5.19704C81.2774 5.19704 80.7705 4.69017 80.7705 4.06506Z" fill="black"/>
<path d="M90.9386 4.06506C90.9386 4.46667 91.2647 4.79276 91.6663 4.79276C92.0679 4.79276 92.394 4.46667 92.394 4.06506C92.394 3.66345 92.0679 3.33735 91.6663 3.33735C91.2647 3.33735 90.9386 3.66345 90.9386 4.06506ZM90.8577 4.06506C90.8577 3.61844 91.2197 3.25649 91.6663 3.25649C92.1129 3.25649 92.4749 3.61844 92.4749 4.06506C92.4749 4.51167 92.1129 4.87361 91.6663 4.87361C91.2197 4.87361 90.8577 4.51167 90.8577 4.06506Z" fill="black"/>
</svg>
