<svg width="13" height="16" viewBox="0 0 13 16" fill="none" xmlns="http://www.w3.org/2000/svg">
    <style>
        path { fill: black;}
        @media (prefers-color-scheme: dark)
         { path { fill: white; }}
    </style>

    <path
        d="M12.5967 15.6566C12.578 15.7112 12.5424 15.7584 12.495 15.7912C12.4475 15.824 12.3908 15.8408 12.3332 15.8391H11.7579L12.1153 14.0564C12.1581 14.141 12.1966 14.2276 12.2306 14.316L12.6044 15.4826C12.6242 15.5395 12.6215 15.6018 12.5967 15.6566ZM0.0210622 15.6575C-0.00383222 15.6026 -0.00677163 15.5402 0.0128453 15.4832L0.38236 14.3293C0.41759 14.2365 0.457597 14.1456 0.502223 14.057L0.859554 15.8391H0.284313C0.233099 15.8396 0.182746 15.8259 0.138763 15.7997C0.0947798 15.7735 0.0588635 15.7356 0.0349477 15.6903C0.0296327 15.6797 0.0249947 15.6687 0.0210622 15.6575ZM3.89388 14.2352C3.95975 14.3137 4.04592 14.3725 4.14296 14.4053L4.96218 15.8391H4.26396L3.89388 14.2352ZM4.75589 14.3356L5.4901 14.1267C5.71617 14.3262 6.00728 14.4362 6.30875 14.4362C6.61023 14.4362 6.90133 14.3262 7.12741 14.1267L7.86162 14.3356L7.00244 15.8391H5.61506L4.75589 14.3356ZM8.47455 14.4053C8.53167 14.3857 8.58533 14.3572 8.63351 14.3208C8.66654 14.2956 8.69675 14.2669 8.72363 14.2352L8.35355 15.8391H7.65532L8.47455 14.4053ZM7.54708 10.5248C7.19693 10.809 6.7597 10.964 6.30875 10.964C5.85781 10.964 5.42058 10.809 5.07043 10.5248C4.8664 10.3576 4.68504 10.1989 4.51219 10.0374C4.51502 10.0657 4.52069 10.0941 4.52352 10.1196C4.55385 10.3697 4.56993 10.6214 4.57169 10.8733L6.30875 12.3639L8.04581 10.8733C8.04757 10.6214 8.06365 10.3697 8.09398 10.1196C8.09681 10.0912 8.10248 10.0657 8.10531 10.0374C7.93246 10.1989 7.7511 10.3576 7.54708 10.5248ZM1.58498 12.8938C1.13726 13.2196 1.06925 13.2763 1.04658 13.299C1.01257 13.333 0.981402 13.3727 0.950231 13.4067L1.43763 15.838H2.26507L1.58498 12.8938ZM5.19511 13.265L4.32516 12.7549V13.8686L5.19511 13.622C5.18276 13.5633 5.17612 13.5035 5.17527 13.4435C5.17628 13.3835 5.18292 13.3237 5.19511 13.265ZM5.19511 13.265L4.32516 12.7549V13.8686L5.19511 13.622C5.18276 13.5633 5.17612 13.5035 5.17527 13.4435C5.17628 13.3835 5.18292 13.3237 5.19511 13.265ZM2.91398 12.4602C2.63828 12.4779 2.36643 12.5341 2.10638 12.6274L2.84598 15.838H3.68191L2.91682 12.5169C2.91305 12.4982 2.91209 12.4791 2.91398 12.4602ZM5.19511 13.265L4.32516 12.7549V13.8686L5.19511 13.622C5.18276 13.5633 5.17612 13.5035 5.17527 13.4435C5.17628 13.3835 5.18292 13.3237 5.19511 13.265ZM5.19511 13.265L4.32516 12.7549V13.8686L5.19511 13.622C5.18276 13.5633 5.17612 13.5035 5.17527 13.4435C5.17628 13.3835 5.18292 13.3237 5.19511 13.265ZM6.30875 13.0185C6.00271 13.0185 5.74201 13.214 5.74201 13.4435C5.74201 13.6759 6.00271 13.8686 6.30875 13.8686C6.61479 13.8686 6.87549 13.6759 6.87549 13.4435C6.87549 13.214 6.61479 13.0185 6.30875 13.0185ZM9.70352 12.4602C9.70541 12.4791 9.70446 12.4982 9.70069 12.5169L8.93559 15.838H9.77153L10.5111 12.6274C10.2511 12.5341 9.97922 12.4779 9.70352 12.4602ZM11.5709 13.299C11.5483 13.2763 11.4802 13.2196 11.0325 12.8938L10.3524 15.838H11.1799L11.6673 13.4067C11.6361 13.3727 11.6049 13.333 11.5709 13.299ZM6.30875 13.0185C6.00271 13.0185 5.74201 13.214 5.74201 13.4435C5.74201 13.6759 6.00271 13.8686 6.30875 13.8686C6.61479 13.8686 6.87549 13.6759 6.87549 13.4435C6.87549 13.214 6.61479 13.0185 6.30875 13.0185ZM6.30875 13.0185C6.00271 13.0185 5.74201 13.214 5.74201 13.4435C5.74201 13.6759 6.00271 13.8686 6.30875 13.8686C6.61479 13.8686 6.87549 13.6759 6.87549 13.4435C6.87549 13.214 6.61479 13.0185 6.30875 13.0185ZM7.42239 13.265C7.43459 13.3237 7.44123 13.3835 7.44223 13.4435C7.44138 13.5035 7.43474 13.5633 7.42239 13.622L8.29234 13.8686V12.7549L7.42239 13.265ZM6.30875 13.0185C6.00271 13.0185 5.74201 13.214 5.74201 13.4435C5.74201 13.6759 6.00271 13.8686 6.30875 13.8686C6.61479 13.8686 6.87549 13.6759 6.87549 13.4435C6.87549 13.214 6.61479 13.0185 6.30875 13.0185ZM6.30875 13.0185C6.00271 13.0185 5.74201 13.214 5.74201 13.4435C5.74201 13.6759 6.00271 13.8686 6.30875 13.8686C6.61479 13.8686 6.87549 13.6759 6.87549 13.4435C6.87549 13.214 6.61479 13.0185 6.30875 13.0185ZM5.19511 13.265L4.32516 12.7549V13.8686L5.19511 13.622C5.18276 13.5633 5.17612 13.5035 5.17527 13.4435C5.17628 13.3835 5.18292 13.3237 5.19511 13.265ZM8.27817 11.4231L6.90099 12.6019C6.98764 12.6487 7.06768 12.7069 7.13902 12.7748L8.09681 12.2137C8.12352 12.1966 8.15339 12.185 8.18466 12.1797C8.26655 12.1639 8.35091 12.1664 8.43173 12.187C8.51255 12.2075 8.58783 12.2457 8.65222 12.2987C8.75022 12.3787 8.81815 12.4896 8.84491 12.6132L9.07161 12.2165L8.27817 11.4231ZM9.65535 5.51199C9.63635 5.52026 9.61634 5.52597 9.59584 5.52899C9.58082 5.5371 9.56659 5.54659 9.55333 5.55733C9.43069 6.0943 9.37642 6.64462 9.39181 7.19521C9.42854 7.24389 9.47033 7.28854 9.51649 7.32839C9.5845 7.20371 9.70919 6.80699 9.70919 5.92004C9.71722 5.78184 9.69895 5.64338 9.65535 5.51199ZM9.45982 0.0372889C9.23879 -0.0958948 8.78824 0.150637 8.30934 0.414171C7.72277 0.737212 7.05685 1.10276 6.30875 1.10276C3.04433 1.10276 2.62495 2.23907 2.62495 3.22803C2.62367 3.35705 2.63315 3.48596 2.65328 3.61341C2.7079 4.02371 2.84891 4.41777 3.067 4.76956L4.35633 3.12318C4.41567 3.03915 4.49149 2.96808 4.57916 2.91427C4.66684 2.86047 4.76454 2.82507 4.86634 2.81023C4.96813 2.79538 5.07187 2.8014 5.17126 2.82793C5.27065 2.85445 5.36361 2.90091 5.44447 2.9645C5.69188 3.15444 5.99494 3.25764 6.30685 3.25815C6.61876 3.25866 6.92217 3.15646 7.17019 2.96733C7.25096 2.90314 7.34397 2.85611 7.44353 2.82911C7.5431 2.80211 7.64712 2.7957 7.74925 2.81029C7.85137 2.82488 7.94945 2.86016 8.03747 2.91396C8.12549 2.96776 8.20161 3.03895 8.26117 3.12318L9.47682 4.67605L9.60717 4.67888C9.859 4.23675 9.99178 3.73684 9.99256 3.22803C9.99256 0.850559 9.70352 0.178974 9.45982 0.0372889ZM3.06417 5.56016C3.04737 5.54629 3.02935 5.53396 3.01033 5.52333C2.99404 5.52059 2.97795 5.5168 2.96216 5.51199C2.91824 5.6433 2.89996 5.78183 2.90831 5.92004C2.90831 6.80699 3.033 7.20371 3.10101 7.32839C3.14717 7.28854 3.18896 7.24389 3.22569 7.19521C3.24108 6.64556 3.18681 6.09617 3.06417 5.56016ZM7.81628 3.47456C7.80145 3.45021 7.78173 3.4292 7.75837 3.41285C7.73501 3.39651 7.70851 3.38518 7.68055 3.37959C7.65259 3.374 7.62378 3.37426 7.59593 3.38037C7.56808 3.38647 7.5418 3.39828 7.51874 3.41505C7.17204 3.68083 6.7475 3.82511 6.31065 3.82562C5.8738 3.82614 5.44892 3.68285 5.1016 3.41789C5.07862 3.40055 5.05228 3.38821 5.02426 3.38166C4.99624 3.3751 4.96716 3.37446 4.93888 3.3798C4.9106 3.38514 4.88374 3.39632 4.86004 3.41264C4.83634 3.42896 4.8163 3.45005 4.80123 3.47456L3.5374 5.08977C3.54023 5.1011 3.54306 5.11527 3.5459 5.12944C3.54874 5.14292 3.55253 5.15617 3.55723 5.16911V5.17761C3.77854 5.99877 3.84958 6.85317 3.76693 7.6996C3.76126 7.75628 3.75842 7.81862 3.75842 7.88096C3.75842 8.4307 4.35067 9.2128 5.42747 10.0827C5.6764 10.2852 5.98736 10.396 6.30825 10.3965C6.62914 10.3971 6.94046 10.2873 7.19003 10.0856C8.26684 9.2128 8.85908 8.4307 8.85908 7.88096C8.85908 7.81862 8.85624 7.75628 8.85058 7.69394C8.77164 6.87487 8.83589 6.04832 9.04043 5.25129C9.04327 5.24279 9.0461 5.22579 9.05177 5.20878L9.06594 5.15778C9.0716 5.13511 9.07444 5.11244 9.08011 5.08694L7.81628 3.47456ZM6.02538 7.62026H6.59212C6.66727 7.62026 6.73935 7.65012 6.79249 7.70326C6.84564 7.7564 6.87549 7.82848 6.87549 7.90363C6.87549 7.97878 6.84564 8.05086 6.79249 8.104C6.73935 8.15714 6.66727 8.187 6.59212 8.187H6.02538C5.95023 8.187 5.87815 8.15714 5.82501 8.104C5.77187 8.05086 5.74201 7.97878 5.74201 7.90363C5.74201 7.82848 5.77187 7.7564 5.82501 7.70326C5.87815 7.65012 5.95023 7.62026 6.02538 7.62026ZM5.17527 6.20341V6.48678C5.17527 6.56194 5.14542 6.63401 5.09228 6.68715C5.03913 6.7403 4.96706 6.77015 4.8919 6.77015C4.81675 6.77015 4.74467 6.7403 4.69153 6.68715C4.63839 6.63401 4.60853 6.56194 4.60853 6.48678V6.20341H4.32516C4.25001 6.20341 4.17793 6.17356 4.12479 6.12042C4.07165 6.06727 4.0418 5.9952 4.0418 5.92004C4.0418 5.84489 4.07165 5.77281 4.12479 5.71967C4.17793 5.66653 4.25001 5.63667 4.32516 5.63667H5.45864C5.5338 5.63667 5.60587 5.66653 5.65902 5.71967C5.71216 5.77281 5.74201 5.84489 5.74201 5.92004C5.74201 5.9952 5.71216 6.06727 5.65902 6.12042C5.60587 6.17356 5.5338 6.20341 5.45864 6.20341H5.17527ZM6.87549 9.32048H5.74201C5.66686 9.32048 5.59478 9.29062 5.54164 9.23748C5.4885 9.18434 5.45864 9.11226 5.45864 9.03711C5.45864 8.96195 5.4885 8.88988 5.54164 8.83673C5.59478 8.78359 5.66686 8.75374 5.74201 8.75374H6.87549C6.95064 8.75374 7.02272 8.78359 7.07586 8.83673C7.129 8.88988 7.15886 8.96195 7.15886 9.03711C7.15886 9.11226 7.129 9.18434 7.07586 9.23748C7.02272 9.29062 6.95064 9.32048 6.87549 9.32048ZM8.29234 6.20341H8.00897V6.48678C8.00897 6.56194 7.97911 6.63401 7.92597 6.68715C7.87283 6.7403 7.80075 6.77015 7.7256 6.77015C7.65044 6.77015 7.57837 6.7403 7.52523 6.68715C7.47208 6.63401 7.44223 6.56194 7.44223 6.48678V6.20341H7.15886C7.0837 6.20341 7.01163 6.17356 6.95849 6.12042C6.90534 6.06727 6.87549 5.9952 6.87549 5.92004C6.87549 5.84489 6.90534 5.77281 6.95849 5.71967C7.01163 5.66653 7.0837 5.63667 7.15886 5.63667H8.29234C8.36749 5.63667 8.43957 5.66653 8.49271 5.71967C8.54585 5.77281 8.57571 5.84489 8.57571 5.92004C8.57571 5.9952 8.54585 6.06727 8.49271 6.12042C8.43957 6.17356 8.36749 6.20341 8.29234 6.20341ZM4.33933 11.4231L3.5459 12.2165L3.77259 12.6132C3.80447 12.4692 3.89131 12.3433 4.01463 12.2623C4.13794 12.1813 4.288 12.1517 4.43284 12.1797C4.46411 12.185 4.49398 12.1966 4.52069 12.2137L5.47848 12.7748C5.54982 12.7069 5.62986 12.6487 5.71651 12.6019L4.33933 11.4231Z" />
</svg>