<svg width="48" height="48" viewBox="0 0 48 48" fill="none" xmlns="http://www.w3.org/2000/svg">
<g clip-path="url(#clip0_3_187)">
<g clip-path="url(#clip1_3_187)">
<g clip-path="url(#clip2_3_187)">
<g clip-path="url(#clip3_3_187)">
<g clip-path="url(#clip4_3_187)">
<g clip-path="url(#clip5_3_187)">
<g clip-path="url(#clip6_3_187)">
<g clip-path="url(#clip7_3_187)">
<path d="M30.2879 31.737C30.2693 31.7916 30.2336 31.8388 30.1862 31.8716C30.1388 31.9044 30.0821 31.9212 30.0244 31.9195H29.4492L29.8065 30.1368C29.8493 30.2214 29.8878 30.308 29.9218 30.3964L30.2956 31.563C30.3155 31.6199 30.3127 31.6822 30.2879 31.737ZM17.7123 31.7379C17.6874 31.683 17.6844 31.6206 17.7041 31.5636L18.0736 30.4097C18.1088 30.3169 18.1488 30.226 18.1934 30.1374L18.5508 31.9195H17.9755C17.9243 31.92 17.874 31.9064 17.83 31.8801C17.786 31.8539 17.7501 31.816 17.7262 31.7707C17.7208 31.7601 17.7162 31.7491 17.7123 31.7379ZM21.5851 30.3156C21.651 30.3941 21.7371 30.4529 21.8342 30.4857L22.6534 31.9195H21.9552L21.5851 30.3156ZM22.4471 30.416L23.1813 30.2071C23.4074 30.4066 23.6985 30.5166 24 30.5166C24.3014 30.5166 24.5925 30.4066 24.8186 30.2071L25.5528 30.416L24.6937 31.9195H23.3063L22.4471 30.416ZM26.1658 30.4857C26.2229 30.4661 26.2765 30.4376 26.3247 30.4012C26.3578 30.376 26.388 30.3473 26.4148 30.3156L26.0448 31.9195H25.3465L26.1658 30.4857ZM25.2383 26.6052C24.8881 26.8894 24.4509 27.0445 24 27.0445C23.549 27.0445 23.1118 26.8894 22.7616 26.6052C22.5576 26.438 22.3763 26.2793 22.2034 26.1178C22.2062 26.1461 22.2119 26.1745 22.2147 26.2C22.2451 26.4501 22.2611 26.7018 22.2629 26.9537L24 28.4443L25.737 26.9537C25.7388 26.7018 25.7549 26.4501 25.7852 26.2C25.788 26.1716 25.7937 26.1461 25.7965 26.1178C25.6237 26.2793 25.4423 26.438 25.2383 26.6052ZM19.2762 28.9742C18.8285 29.3 18.7605 29.3567 18.7378 29.3794C18.7038 29.4134 18.6726 29.4531 18.6414 29.4871L19.1288 31.9184H19.9563L19.2762 28.9742ZM22.8863 29.3454L22.0164 28.8353V29.949L22.8863 29.7024C22.874 29.6437 22.8673 29.5839 22.8665 29.5239C22.8675 29.4639 22.8741 29.4041 22.8863 29.3454ZM22.8863 29.3454L22.0164 28.8353V29.949L22.8863 29.7024C22.874 29.6437 22.8673 29.5839 22.8665 29.5239C22.8675 29.4639 22.8741 29.4041 22.8863 29.3454ZM20.6052 28.5406C20.3295 28.5583 20.0576 28.6145 19.7976 28.7078L20.5372 31.9184H21.3731L20.608 28.5973C20.6043 28.5786 20.6033 28.5595 20.6052 28.5406ZM22.8863 29.3454L22.0164 28.8353V29.949L22.8863 29.7024C22.874 29.6437 22.8673 29.5839 22.8665 29.5239C22.8675 29.4639 22.8741 29.4041 22.8863 29.3454ZM22.8863 29.3454L22.0164 28.8353V29.949L22.8863 29.7024C22.874 29.6437 22.8673 29.5839 22.8665 29.5239C22.8675 29.4639 22.8741 29.4041 22.8863 29.3454ZM24 29.0989C23.6939 29.0989 23.4332 29.2944 23.4332 29.5239C23.4332 29.7563 23.6939 29.949 24 29.949C24.306 29.949 24.5667 29.7563 24.5667 29.5239C24.5667 29.2944 24.306 29.0989 24 29.0989ZM27.3947 28.5406C27.3966 28.5595 27.3957 28.5786 27.3919 28.5973L26.6268 31.9184H27.4627L28.2023 28.7078C27.9423 28.6145 27.6704 28.5583 27.3947 28.5406ZM29.2621 29.3794C29.2395 29.3567 29.1715 29.3 28.7237 28.9742L28.0437 31.9184H28.8711L29.3585 29.4871C29.3273 29.4531 29.2961 29.4134 29.2621 29.3794ZM24 29.0989C23.6939 29.0989 23.4332 29.2944 23.4332 29.5239C23.4332 29.7563 23.6939 29.949 24 29.949C24.306 29.949 24.5667 29.7563 24.5667 29.5239C24.5667 29.2944 24.306 29.0989 24 29.0989ZM24 29.0989C23.6939 29.0989 23.4332 29.2944 23.4332 29.5239C23.4332 29.7563 23.6939 29.949 24 29.949C24.306 29.949 24.5667 29.7563 24.5667 29.5239C24.5667 29.2944 24.306 29.0989 24 29.0989ZM25.1136 29.3454C25.1258 29.4041 25.1324 29.4639 25.1334 29.5239C25.1326 29.5839 25.126 29.6437 25.1136 29.7024L25.9836 29.949V28.8353L25.1136 29.3454ZM24 29.0989C23.6939 29.0989 23.4332 29.2944 23.4332 29.5239C23.4332 29.7563 23.6939 29.949 24 29.949C24.306 29.949 24.5667 29.7563 24.5667 29.5239C24.5667 29.2944 24.306 29.0989 24 29.0989ZM24 29.0989C23.6939 29.0989 23.4332 29.2944 23.4332 29.5239C23.4332 29.7563 23.6939 29.949 24 29.949C24.306 29.949 24.5667 29.7563 24.5667 29.5239C24.5667 29.2944 24.306 29.0989 24 29.0989ZM22.8863 29.3454L22.0164 28.8353V29.949L22.8863 29.7024C22.874 29.6437 22.8673 29.5839 22.8665 29.5239C22.8675 29.4639 22.8741 29.4041 22.8863 29.3454ZM25.9694 27.5035L24.5922 28.6823C24.6789 28.7291 24.7589 28.7873 24.8302 28.8552L25.788 28.2941C25.8147 28.277 25.8446 28.2654 25.8759 28.2601C25.9578 28.2443 26.0421 28.2468 26.1229 28.2674C26.2038 28.288 26.279 28.3261 26.3434 28.3791C26.4414 28.4591 26.5094 28.57 26.5361 28.6936L26.7628 28.2969L25.9694 27.5035ZM27.3466 21.5924C27.3276 21.6007 27.3076 21.6064 27.2871 21.6094C27.272 21.6175 27.2578 21.627 27.2445 21.6377C27.1219 22.1747 27.0676 22.725 27.083 23.2756C27.1198 23.3243 27.1615 23.3689 27.2077 23.4088C27.2757 23.2841 27.4004 22.8874 27.4004 22.0004C27.4084 21.8622 27.3902 21.7238 27.3466 21.5924ZM27.151 16.1177C26.93 15.9845 26.4795 16.231 26.0006 16.4946C25.414 16.8176 24.7481 17.1832 24 17.1832C20.7355 17.1832 20.3162 18.3195 20.3162 19.3084C20.3149 19.4375 20.3244 19.5664 20.3445 19.6938C20.3991 20.1041 20.5401 20.4982 20.7582 20.85L22.0476 19.2036C22.1069 19.1196 22.1827 19.0485 22.2704 18.9947C22.3581 18.9409 22.4558 18.9055 22.5576 18.8906C22.6593 18.8758 22.7631 18.8818 22.8625 18.9083C22.9619 18.9349 23.0548 18.9813 23.1357 19.0449C23.3831 19.2348 23.6862 19.338 23.9981 19.3386C24.31 19.3391 24.6134 19.2369 24.8614 19.0477C24.9422 18.9835 25.0352 18.9365 25.1347 18.9095C25.2343 18.8825 25.3383 18.8761 25.4405 18.8907C25.5426 18.9053 25.6407 18.9406 25.7287 18.9944C25.8167 19.0482 25.8928 19.1194 25.9524 19.2036L27.168 20.7565L27.2984 20.7593C27.5502 20.3172 27.683 19.8172 27.6838 19.3084C27.6838 16.931 27.3947 16.2594 27.151 16.1177ZM20.7554 21.6406C20.7386 21.6267 20.7206 21.6144 20.7015 21.6037C20.6853 21.601 20.6692 21.5972 20.6534 21.5924C20.6095 21.7237 20.5912 21.8622 20.5995 22.0004C20.5995 22.8874 20.7242 23.2841 20.7922 23.4088C20.8384 23.3689 20.8802 23.3243 20.9169 23.2756C20.9323 22.726 20.878 22.1766 20.7554 21.6406ZM25.5075 19.555C25.4927 19.5306 25.4729 19.5096 25.4496 19.4933C25.4262 19.4769 25.3997 19.4656 25.3718 19.46C25.3438 19.4544 25.315 19.4547 25.2871 19.4608C25.2593 19.4669 25.233 19.4787 25.21 19.4955C24.8633 19.7612 24.4387 19.9055 24.0019 19.906C23.565 19.9065 23.1401 19.7633 22.7928 19.4983C22.7698 19.481 22.7435 19.4686 22.7155 19.4621C22.6875 19.4555 22.6584 19.4549 22.6301 19.4602C22.6018 19.4655 22.575 19.4767 22.5513 19.493C22.5276 19.5094 22.5075 19.5305 22.4924 19.555L21.2286 21.1702C21.2314 21.1815 21.2343 21.1957 21.2371 21.2098C21.24 21.2233 21.2437 21.2366 21.2484 21.2495V21.258C21.4698 22.0792 21.5408 22.9336 21.4581 23.78C21.4525 23.8367 21.4496 23.899 21.4496 23.9614C21.4496 24.5111 22.0419 25.2932 23.1187 26.1631C23.3676 26.3656 23.6786 26.4764 23.9995 26.477C24.3204 26.4775 24.6317 26.3677 24.8812 26.166C25.9581 25.2932 26.5503 24.5111 26.5503 23.9614C26.5503 23.899 26.5475 23.8367 26.5418 23.7743C26.4629 22.9553 26.5271 22.1287 26.7316 21.3317C26.7345 21.3232 26.7373 21.3062 26.743 21.2892L26.7572 21.2382C26.7628 21.2155 26.7657 21.1928 26.7713 21.1673L25.5075 19.555ZM23.7166 23.7007H24.2833C24.3585 23.7007 24.4306 23.7305 24.4837 23.7837C24.5369 23.8368 24.5667 23.9089 24.5667 23.984C24.5667 24.0592 24.5369 24.1313 24.4837 24.1844C24.4306 24.2375 24.3585 24.2674 24.2833 24.2674H23.7166C23.6414 24.2674 23.5694 24.2375 23.5162 24.1844C23.4631 24.1313 23.4332 24.0592 23.4332 23.984C23.4332 23.9089 23.4631 23.8368 23.5162 23.7837C23.5694 23.7305 23.6414 23.7007 23.7166 23.7007ZM22.8665 22.2838V22.5672C22.8665 22.6423 22.8366 22.7144 22.7835 22.7676C22.7303 22.8207 22.6583 22.8506 22.5831 22.8506C22.508 22.8506 22.4359 22.8207 22.3827 22.7676C22.3296 22.7144 22.2997 22.6423 22.2997 22.5672V22.2838H22.0164C21.9412 22.2838 21.8691 22.254 21.816 22.2008C21.7629 22.1477 21.733 22.0756 21.733 22.0004C21.733 21.9253 21.7629 21.8532 21.816 21.8001C21.8691 21.7469 21.9412 21.7171 22.0164 21.7171H23.1499C23.225 21.7171 23.2971 21.7469 23.3502 21.8001C23.4034 21.8532 23.4332 21.9253 23.4332 22.0004C23.4332 22.0756 23.4034 22.1477 23.3502 22.2008C23.2971 22.254 23.225 22.2838 23.1499 22.2838H22.8665ZM24.5667 25.4009H23.4332C23.3581 25.4009 23.286 25.371 23.2329 25.3179C23.1797 25.2647 23.1499 25.1927 23.1499 25.1175C23.1499 25.0424 23.1797 24.9703 23.2329 24.9171C23.286 24.864 23.3581 24.8341 23.4332 24.8341H24.5667C24.6419 24.8341 24.7139 24.864 24.7671 24.9171C24.8202 24.9703 24.8501 25.0424 24.8501 25.1175C24.8501 25.1927 24.8202 25.2647 24.7671 25.3179C24.7139 25.371 24.6419 25.4009 24.5667 25.4009ZM25.9836 22.2838H25.7002V22.5672C25.7002 22.6423 25.6703 22.7144 25.6172 22.7676C25.564 22.8207 25.492 22.8506 25.4168 22.8506C25.3417 22.8506 25.2696 22.8207 25.2164 22.7676C25.1633 22.7144 25.1334 22.6423 25.1334 22.5672V22.2838H24.8501C24.7749 22.2838 24.7028 22.254 24.6497 22.2008C24.5966 22.1477 24.5667 22.0756 24.5667 22.0004C24.5667 21.9253 24.5966 21.8532 24.6497 21.8001C24.7028 21.7469 24.7749 21.7171 24.8501 21.7171H25.9836C26.0587 21.7171 26.1308 21.7469 26.1839 21.8001C26.2371 21.8532 26.2669 21.9253 26.2669 22.0004C26.2669 22.0756 26.2371 22.1477 26.1839 22.2008C26.1308 22.254 26.0587 22.2838 25.9836 22.2838ZM22.0305 27.5035L21.2371 28.2969L21.4638 28.6936C21.4957 28.5496 21.5825 28.4237 21.7058 28.3427C21.8292 28.2617 21.9792 28.2321 22.1241 28.2601C22.1553 28.2654 22.1852 28.277 22.2119 28.2941L23.1697 28.8552C23.241 28.7873 23.3211 28.7291 23.4077 28.6823L22.0305 27.5035Z" fill="black"/>
</g>
</g>
<path d="M10.0531 19.4371L9.75996 20.3526L7.59672 19.6597L7.87668 18.7854C7.94892 18.5599 8.05164 18.4136 8.18496 18.3463C8.31852 18.2783 8.4756 18.2731 8.6562 18.331C8.73948 18.3576 8.80956 18.3931 8.86644 18.4373C8.92248 18.4812 8.96484 18.5316 8.9934 18.5884C9.021 18.6457 9.0324 18.7087 9.02772 18.7774C9.05352 18.7345 9.087 18.695 9.12804 18.6588C9.16836 18.6223 9.21624 18.5944 9.2718 18.5749C9.32736 18.5555 9.38856 18.5456 9.4554 18.5454C9.5214 18.5449 9.59328 18.557 9.67104 18.582C9.8148 18.6281 9.92268 18.6899 9.9948 18.7675C10.0662 18.8449 10.1054 18.9398 10.1128 19.0522C10.1196 19.1635 10.0997 19.2918 10.0531 19.4371ZM9.01188 19.557L9.47016 19.7038L9.597 19.3079C9.6108 19.2647 9.61356 19.2252 9.60504 19.1896C9.59736 19.1542 9.57912 19.1232 9.55032 19.0968C9.5208 19.07 9.48012 19.0483 9.42828 19.0316C9.38112 19.0165 9.3384 19.012 9.30012 19.018C9.26184 19.0238 9.22908 19.0385 9.2016 19.0618C9.1734 19.0848 9.1524 19.1179 9.1386 19.161L9.01188 19.557ZM8.21064 19.3003L8.63004 19.4347L8.7486 19.0648C8.76468 19.0145 8.75724 18.9688 8.72628 18.9276C8.69604 18.8868 8.65068 18.8567 8.5902 18.8372C8.51088 18.8118 8.45064 18.8107 8.40936 18.8339C8.36892 18.8573 8.34192 18.8903 8.32836 18.9328L8.21064 19.3003Z" fill="black"/>
<path d="M10.621 18.0458L10.3776 18.5328L8.65476 16.8989L8.94996 16.3079L11.2912 16.7045L11.0461 17.1948L10.6246 17.1142L10.3021 17.7594L10.621 18.0458ZM9.20688 16.8096L9.933 17.438L10.1459 17.0119L9.20688 16.8096Z" fill="black"/>
<path d="M11.7842 15.9754L11.4836 16.4113L9.61344 15.122L10.1556 14.3357C10.21 14.257 10.2698 14.1911 10.3355 14.138C10.3999 14.0852 10.4723 14.0501 10.5527 14.0323C10.6331 14.0146 10.7225 14.0192 10.8211 14.0461C10.919 14.0726 11.0285 14.1275 11.1494 14.2108C11.2316 14.2674 11.2967 14.3233 11.3448 14.3786C11.3922 14.4334 11.4268 14.4872 11.4484 14.5402C11.4704 14.5925 11.4828 14.6435 11.4854 14.6934C11.4881 14.7433 11.4868 14.7925 11.4814 14.8409L12.4478 15.0128L12.1423 15.456L11.2841 15.2774C11.2723 15.2944 11.2589 15.3132 11.2438 15.3338C11.2279 15.354 11.2132 15.3738 11.1996 15.3935C11.1856 15.4139 11.1713 15.4345 11.1568 15.4556C11.1422 15.4766 11.1287 15.4964 11.116 15.5147L11.7842 15.9754ZM10.3052 14.9557L10.7717 15.2773L10.9592 15.0054C10.9804 14.9748 10.9948 14.9452 11.0024 14.9165C11.0113 14.8876 11.0122 14.858 11.0048 14.828C10.9964 14.7982 10.9802 14.7685 10.9565 14.739C10.9315 14.7098 10.8967 14.6797 10.8518 14.6489C10.8064 14.6176 10.7658 14.5956 10.7304 14.5831C10.6951 14.5718 10.664 14.569 10.6372 14.5745C10.6092 14.5802 10.5833 14.5924 10.5594 14.611C10.536 14.6288 10.5138 14.6532 10.4927 14.6838L10.3052 14.9557Z" fill="black"/>
<path d="M13.3546 14.0245L12.7042 14.7324L11.0314 13.1957L11.6525 12.5196C11.8127 12.3452 11.9674 12.2555 12.1165 12.2504C12.2663 12.2447 12.411 12.306 12.5507 12.4343C12.6151 12.4934 12.6638 12.555 12.697 12.619C12.7295 12.6824 12.7468 12.7459 12.7488 12.8094C12.7498 12.873 12.7337 12.9349 12.7006 12.9954C12.742 12.9673 12.7889 12.9455 12.8414 12.9299C12.8933 12.9137 12.9485 12.9084 13.0072 12.914C13.0657 12.9197 13.1255 12.9365 13.1862 12.9642C13.2463 12.9914 13.3064 13.0326 13.3666 13.0879C13.4777 13.19 13.5497 13.2914 13.5826 13.3922C13.6148 13.4924 13.6108 13.595 13.5702 13.7002C13.5296 13.8041 13.4578 13.9122 13.3546 14.0245ZM12.359 13.6963L12.7135 14.0219L12.9947 13.7158C13.0254 13.6824 13.0444 13.6477 13.0516 13.6118C13.0594 13.5764 13.0559 13.5407 13.0409 13.5046C13.0253 13.4678 12.9974 13.4311 12.9575 13.3943C12.921 13.3608 12.8842 13.3387 12.847 13.328C12.8098 13.3174 12.7738 13.3169 12.7392 13.3265C12.7039 13.3356 12.671 13.3568 12.6403 13.3902L12.359 13.6963ZM11.7395 13.1272L12.0638 13.4251L12.3266 13.139C12.3624 13.1002 12.3748 13.0555 12.364 13.0052C12.3536 12.9554 12.3252 12.9091 12.2783 12.8662C12.217 12.8098 12.1627 12.7835 12.1157 12.7872C12.0691 12.7915 12.0308 12.8101 12.0006 12.8429L11.7395 13.1272Z" fill="black"/>
<path d="M14.6112 12.8822C14.5736 12.9132 14.5261 12.9456 14.4683 12.9793C14.4104 13.0142 14.3473 13.0381 14.2787 13.051C14.21 13.0638 14.1376 13.0562 14.0611 13.0284C13.9853 13.0001 13.9091 12.9395 13.8324 12.8467L13.0548 11.9052C12.987 11.8231 12.9436 11.744 12.9245 11.6678C12.9048 11.5909 12.9025 11.5207 12.9173 11.4571C12.9322 11.3935 12.9592 11.3342 12.9984 11.2794C13.037 11.224 13.08 11.1767 13.1269 11.1379C13.2528 11.0339 13.364 10.9458 13.4606 10.8736C13.5566 10.8007 13.6417 10.7374 13.716 10.6834C13.7915 10.6296 13.8593 10.5816 13.9195 10.5394L14.204 10.8836L13.562 11.4139C13.5194 11.4491 13.4945 11.4863 13.4873 11.5255C13.4801 11.5646 13.494 11.6056 13.5292 11.6482L13.6891 11.8417L14.369 11.3186L14.6346 11.6401L13.9909 12.2071L14.143 12.3912C14.1719 12.4261 14.1996 12.4487 14.2261 12.4589C14.2538 12.4691 14.2808 12.4714 14.3072 12.4657C14.3342 12.4595 14.3588 12.4472 14.381 12.4288L15.0344 11.8891L15.3173 12.2315C15.2543 12.2964 15.1828 12.3672 15.1028 12.444C15.0235 12.5202 14.9411 12.5958 14.8554 12.6709C14.7698 12.7448 14.6885 12.8153 14.6112 12.8822Z" fill="black"/>
<path d="M16.0424 11.8241L15.5755 12.1039L15.001 9.80004L15.5676 9.46032L17.3286 11.0532L16.8586 11.335L16.5463 11.0402L15.9276 11.411L16.0424 11.8241ZM15.5146 10.0216L15.7891 10.9417L16.1976 10.6968L15.5146 10.0216Z" fill="black"/>
<path d="M18.1363 10.7033L17.6485 10.9093L16.7645 8.81688L17.6443 8.44524C17.7324 8.40804 17.8184 8.38464 17.9021 8.37516C17.9848 8.36532 18.0648 8.37444 18.1421 8.40276C18.2194 8.43096 18.2923 8.48292 18.3611 8.55864C18.4295 8.63364 18.4922 8.73876 18.5494 8.874C18.5882 8.96592 18.6131 9.04812 18.624 9.12048C18.6346 9.19212 18.6347 9.25608 18.6245 9.31236C18.615 9.36828 18.598 9.41808 18.5734 9.46152C18.5488 9.50508 18.5212 9.54576 18.4907 9.5838L19.2132 10.2482L18.7175 10.4576L18.0896 9.84588C18.0707 9.85392 18.0492 9.86256 18.0253 9.87168C18.0011 9.88008 17.978 9.88896 17.956 9.89832C17.9332 9.90792 17.91 9.91776 17.8865 9.92772C17.863 9.93768 17.8409 9.94704 17.8204 9.95568L18.1363 10.7033ZM17.4371 9.04848L17.6576 9.57048L17.962 9.44184C17.9962 9.42744 18.0242 9.41016 18.0462 9.39012C18.0692 9.37056 18.0858 9.34608 18.0958 9.3168C18.1046 9.28704 18.107 9.25344 18.1028 9.21576C18.0976 9.17772 18.0842 9.13368 18.063 9.08352C18.0415 9.03264 18.0191 8.99232 17.9959 8.9628C17.9723 8.93436 17.9476 8.91516 17.922 8.90544C17.8954 8.89524 17.8669 8.89152 17.8368 8.8944C17.8074 8.89692 17.7756 8.90544 17.7414 8.91984L17.4371 9.04848Z" fill="black"/>
<path d="M20.1133 9.98052L19.6069 10.1352L18.9434 7.96272L19.45 7.80804L20.1133 9.98052Z" fill="black"/>
<path d="M21.0029 9.7992L20.4668 9.89364L20.7539 7.5366L21.4045 7.422L22.4797 9.53916L21.94 9.6342L21.7537 9.24744L21.0433 9.3726L21.0029 9.7992ZM21.1543 7.9272L21.0817 8.88468L21.5509 8.802L21.1543 7.9272Z" fill="black"/>
<path d="M24.9962 9.52764L24.3361 9.4992L23.743 7.2L24.2905 7.22364L24.6934 8.9412L25.2436 7.26468L25.7849 7.28796L24.9962 9.52764Z" fill="black"/>
<path d="M26.3112 9.6738L25.7764 9.57228L26.8794 7.46964L27.5285 7.59288L27.7843 9.95352L27.2459 9.85128L27.2087 9.4236L26.5001 9.28908L26.3112 9.6738ZM27.1157 7.97664L26.7088 8.8464L27.1768 8.9352L27.1157 7.97664Z" fill="black"/>
<path d="M28.6217 10.2332L28.1234 10.0614L28.864 7.914L29.2604 8.05068L29.6346 9.6336L30.0827 8.33424L30.5833 8.5068L29.8428 10.6542L29.4428 10.5163L29.0686 8.93724L28.6217 10.2332Z" fill="black"/>
<path d="M30.8221 11.1798C30.6974 11.1139 30.6086 11.0348 30.5556 10.9424C30.5034 10.8505 30.4792 10.7472 30.4829 10.6326C30.4866 10.5179 30.5122 10.3944 30.5598 10.2618C30.6071 10.1282 30.6692 9.98844 30.7462 9.84264C30.8293 9.68508 30.9145 9.54864 31.0016 9.4332C31.0895 9.31824 31.1838 9.23052 31.2847 9.17004C31.3861 9.10884 31.4996 9.08112 31.6253 9.08688C31.7507 9.09156 31.8928 9.13584 32.0518 9.21984C32.151 9.27228 32.2367 9.32268 32.3092 9.37104C32.3815 9.41952 32.4478 9.46896 32.5078 9.51936C32.5672 9.5694 32.6274 9.6222 32.6886 9.67788L32.4973 10.0399C32.4599 10.0136 32.4121 9.98136 32.3539 9.9432C32.2954 9.90576 32.2289 9.8646 32.1547 9.81984C32.0804 9.77496 32.001 9.73032 31.9164 9.68556C31.8077 9.6282 31.7166 9.60288 31.643 9.60972C31.5684 9.61692 31.4989 9.66 31.4348 9.73896C31.37 9.81756 31.2966 9.93456 31.2144 10.09C31.1508 10.2103 31.1041 10.3111 31.0744 10.3924C31.0438 10.4732 31.029 10.5409 31.03 10.5955C31.0306 10.6508 31.0463 10.6969 31.0772 10.7339C31.1074 10.7704 31.1495 10.8029 31.2035 10.8313C31.2734 10.8683 31.3404 10.898 31.404 10.9205C31.4674 10.9418 31.5185 10.9572 31.5574 10.9664L31.7261 10.647L31.41 10.4801L31.6058 10.1092C31.648 10.1249 31.6966 10.1449 31.7518 10.1694C31.807 10.1939 31.8648 10.2203 31.9254 10.2486C31.9853 10.2766 32.0396 10.3033 32.0885 10.3291C32.1512 10.3622 32.2062 10.3922 32.2536 10.4191C32.3014 10.4453 32.344 10.4706 32.3814 10.4951L31.7654 11.6612L31.4132 11.4752L31.4225 11.3066C31.3582 11.3118 31.2703 11.3069 31.1588 11.2919C31.0481 11.2772 30.9359 11.2399 30.8221 11.1798Z" fill="black"/>
<path d="M32.8638 12.4716C32.7623 12.3967 32.6735 12.319 32.5976 12.2384C32.5216 12.1567 32.4665 12.0689 32.4323 11.975C32.3981 11.8811 32.3917 11.7806 32.4132 11.6735C32.4348 11.5664 32.4916 11.4505 32.5837 11.3257L33.4921 10.094L33.9182 10.4083L33.0113 11.6381C32.9711 11.6926 32.9508 11.7451 32.9502 11.7959C32.9491 11.8474 32.9656 11.8974 32.9994 11.946C33.0328 11.9952 33.0814 12.0433 33.1451 12.0902C33.2075 12.1363 33.2671 12.168 33.324 12.1854C33.3811 12.2039 33.4337 12.2048 33.4819 12.188C33.5303 12.1724 33.5746 12.1375 33.6146 12.083L34.5216 10.8534L34.9477 11.1677L34.0393 12.3994C33.9473 12.5242 33.8537 12.613 33.7584 12.6656C33.6625 12.7178 33.5642 12.7412 33.4638 12.7358C33.364 12.7309 33.2645 12.7046 33.1652 12.657C33.0665 12.6088 32.966 12.547 32.8638 12.4716Z" fill="black"/>
<path d="M34.1382 13.532L33.7546 13.1458L35.8537 12.0359L36.3192 12.5046L35.1949 14.596L34.8086 14.2072L35.0198 13.8334L34.5116 13.3216L34.1382 13.532ZM35.7617 12.5875L34.9342 13.0746L35.2698 13.4126L35.7617 12.5875Z" fill="black"/>
<path d="M35.7277 15.2963L35.4109 14.872L37.2308 13.5127L37.8024 14.278C37.8596 14.3546 37.9028 14.4325 37.932 14.5116C37.9614 14.5895 37.9716 14.6694 37.9627 14.7512C37.9538 14.8331 37.9208 14.9164 37.8637 15.0012C37.8073 15.0856 37.7203 15.1716 37.6027 15.2594C37.5228 15.3192 37.4489 15.363 37.3812 15.391C37.3141 15.4183 37.2521 15.4338 37.1951 15.4373C37.1384 15.4415 37.0861 15.4368 37.0379 15.4234C36.9898 15.4099 36.9436 15.3929 36.8994 15.3724L36.4273 16.233L36.1052 15.8018L36.549 15.0457C36.5366 15.0292 36.5232 15.0104 36.5086 14.9896C36.4946 14.9681 36.4805 14.9478 36.4661 14.9286C36.4513 14.9088 36.4362 14.8886 36.421 14.8681C36.4056 14.8476 36.3913 14.8285 36.378 14.8106L35.7277 15.2963ZM37.167 14.2213L36.713 14.5603L36.9107 14.825C36.9329 14.8548 36.9564 14.878 36.9811 14.8945C37.0057 14.9123 37.0333 14.9225 37.0642 14.9251C37.0951 14.9267 37.1285 14.9209 37.1639 14.9077C37.1995 14.8934 37.2391 14.87 37.2828 14.8374C37.3271 14.8043 37.3608 14.773 37.384 14.7433C37.4059 14.7136 37.4186 14.685 37.422 14.6578C37.4255 14.6294 37.4222 14.6009 37.4123 14.5724C37.4028 14.5446 37.387 14.5157 37.3648 14.4859L37.167 14.2213Z" fill="black"/>
<path d="M37.078 17.426L36.6088 16.563L38.6044 15.478L39.0737 16.341C39.1505 16.4824 39.1882 16.6121 39.1866 16.7302C39.1859 16.8479 39.1553 16.9584 39.095 17.0616C39.035 17.1637 38.9496 17.2585 38.8386 17.3461C38.7287 17.4341 38.602 17.517 38.4584 17.5951C38.2295 17.7196 38.0276 17.7955 37.8529 17.8229C37.6786 17.851 37.5277 17.8316 37.4003 17.7648C37.2721 17.6983 37.1647 17.5854 37.078 17.426ZM38.44 16.1701L37.278 16.8019L37.4695 17.154C37.5094 17.2272 37.5614 17.2739 37.626 17.2943C37.6902 17.3138 37.7705 17.3096 37.867 17.2816C37.9634 17.2535 38.0768 17.204 38.2073 17.1331C38.3312 17.0658 38.4278 17.0042 38.4972 16.9488C38.5676 16.8936 38.6159 16.8425 38.6419 16.7954C38.6687 16.748 38.6801 16.7024 38.676 16.6586C38.6716 16.6141 38.6567 16.5686 38.6315 16.5223L38.44 16.1701Z" fill="black"/>
<path d="M37.7345 18.8825L37.5523 18.3695L39.9242 18.261L40.1454 18.8837L38.2362 20.2955L38.0528 19.779L38.4032 19.5311L38.1619 18.8514L37.7345 18.8825ZM39.6056 18.7207L38.6495 18.8083L38.8088 19.2571L39.6056 18.7207Z" fill="black"/>
<path d="M8.48508 29.7193L8.1918 28.8038L10.355 28.111L10.6351 28.9852C10.7074 29.2106 10.7088 29.3894 10.6393 29.5217C10.5702 29.6546 10.4453 29.7502 10.2647 29.808C10.1814 29.8346 10.1038 29.8465 10.0319 29.8435C9.96072 29.8403 9.897 29.824 9.84072 29.7943C9.78504 29.7637 9.73908 29.7191 9.70296 29.6605C9.7068 29.7104 9.7026 29.762 9.69024 29.8153C9.6786 29.8684 9.65592 29.919 9.62196 29.967C9.588 30.0151 9.54396 30.0587 9.48972 30.0978C9.43632 30.1366 9.37068 30.1684 9.29292 30.1932C9.14916 30.2393 9.02544 30.2516 8.92152 30.2304C8.81844 30.2088 8.73132 30.1544 8.66016 30.0672C8.58996 29.9806 8.53164 29.8645 8.48508 29.7193ZM9.26292 29.0167L8.80464 29.1636L8.93148 29.5595C8.94528 29.6027 8.96604 29.6363 8.99364 29.6604C9.02052 29.6848 9.05328 29.6993 9.09204 29.7042C9.13164 29.7089 9.17736 29.7029 9.2292 29.6862C9.27636 29.6711 9.3138 29.6501 9.34152 29.623C9.36924 29.5958 9.38748 29.565 9.39624 29.5301C9.40584 29.4949 9.40368 29.4558 9.38976 29.4126L9.26292 29.0167ZM10.0642 28.7602L9.64476 28.8944L9.7632 29.2644C9.77928 29.3147 9.81192 29.3476 9.861 29.363C9.90936 29.3788 9.96372 29.377 10.0243 29.3575C10.1036 29.3321 10.1533 29.298 10.1734 29.2552C10.1927 29.2126 10.1954 29.1701 10.1819 29.1277L10.0642 28.7602Z" fill="black"/>
<path d="M9.14796 31.3442L8.9046 30.8573L11.2458 30.4607L11.541 31.0517L9.81816 32.6856L9.57324 32.1953L9.89088 31.9066L9.56844 31.2613L9.14796 31.3442ZM10.9855 30.9558L10.0471 31.1591L10.26 31.5852L10.9855 30.9558Z" fill="black"/>
<path d="M10.4286 33.6133L10.128 33.1774L11.9981 31.8881L12.5402 32.6743C12.5946 32.753 12.6348 32.8325 12.661 32.9128C12.6874 32.9917 12.6946 33.0719 12.6827 33.1532C12.6707 33.2346 12.6346 33.3167 12.5742 33.3994C12.5147 33.4816 12.4244 33.5642 12.3036 33.6475C12.2214 33.7042 12.146 33.7452 12.0773 33.7705C12.0092 33.7954 11.9467 33.8084 11.8895 33.8099C11.8327 33.8119 11.7806 33.8053 11.733 33.79C11.6854 33.7747 11.6399 33.756 11.5966 33.7338L11.0922 34.576L10.7867 34.1328L11.2588 33.3941C11.247 33.3772 11.2343 33.3578 11.2205 33.3364C11.2073 33.3144 11.194 33.2935 11.1803 33.2738C11.1662 33.2534 11.152 33.2328 11.1374 33.2118C11.1229 33.1908 11.1094 33.171 11.0968 33.1526L10.4286 33.6133ZM11.9076 32.5937L11.441 32.9153L11.6286 33.1872C11.6497 33.2178 11.6723 33.2418 11.6963 33.2593C11.7202 33.2779 11.7474 33.2892 11.7781 33.293C11.8091 33.2958 11.8424 33.2912 11.8784 33.2795C11.9146 33.2665 11.9551 33.2447 12 33.2137C12.0455 33.1824 12.0804 33.1523 12.1045 33.1235C12.1277 33.0946 12.1414 33.0665 12.1458 33.0395C12.1504 33.0113 12.1482 32.9827 12.1393 32.9538C12.1309 32.9256 12.1162 32.8962 12.095 32.8656L11.9076 32.5937Z" fill="black"/>
<path d="M12.142 35.7436L11.4916 35.0357L13.1644 33.499L13.7855 34.1749C13.9457 34.3493 14.022 34.5109 14.0144 34.6601C14.0075 34.8098 13.9342 34.9488 13.7945 35.0772C13.73 35.1364 13.6646 35.1797 13.5982 35.2073C13.5323 35.2343 13.4675 35.2462 13.404 35.2428C13.3405 35.2384 13.2802 35.2171 13.2228 35.1791C13.2472 35.2228 13.265 35.2714 13.2762 35.325C13.288 35.378 13.2886 35.4335 13.2779 35.4914C13.2672 35.5494 13.2455 35.6074 13.2127 35.6654C13.1806 35.723 13.1344 35.7794 13.0741 35.8348C12.963 35.9369 12.8558 36 12.7526 36.0242C12.65 36.0479 12.5482 36.0352 12.4469 35.986C12.3468 35.9368 12.2452 35.856 12.142 35.7436ZM12.5532 34.7795L12.1988 35.105L12.48 35.4112C12.5107 35.4445 12.5436 35.4664 12.5789 35.4767C12.6134 35.4875 12.6493 35.487 12.6866 35.4751C12.7246 35.4628 12.7636 35.438 12.8035 35.4012C12.84 35.3677 12.8651 35.3329 12.8789 35.2967C12.8927 35.2604 12.8963 35.2247 12.8896 35.1895C12.8834 35.1536 12.8651 35.119 12.8345 35.0856L12.5532 34.7795ZM13.1728 34.2103L12.8484 34.5083L13.1112 34.7944C13.147 34.8332 13.1903 34.8493 13.2414 34.8427C13.2918 34.8367 13.3405 34.8122 13.3872 34.7693C13.4485 34.7129 13.4794 34.6612 13.4796 34.6138C13.4792 34.5671 13.464 34.5272 13.4339 34.4945L13.1728 34.2103Z" fill="black"/>
<path d="M13.5389 37.07C13.5013 37.0391 13.4605 36.9984 13.4166 36.9481C13.3714 36.898 13.3361 36.8404 13.3105 36.7754C13.285 36.7105 13.2787 36.6379 13.2914 36.5575C13.3049 36.4777 13.35 36.3914 13.4267 36.2986L14.2044 35.357C14.2722 35.275 14.3417 35.2174 14.413 35.1844C14.4847 35.1505 14.5532 35.1349 14.6185 35.1374C14.6838 35.14 14.747 35.1553 14.8084 35.1835C14.8702 35.211 14.9245 35.2442 14.9716 35.2831C15.0974 35.3872 15.205 35.4797 15.2942 35.5608C15.3839 35.6413 15.4622 35.713 15.5291 35.7757C15.5962 35.8397 15.656 35.8972 15.7091 35.9484L15.4246 36.2928L14.7827 35.7625C14.7401 35.7274 14.6989 35.7098 14.659 35.7101C14.6191 35.7103 14.5817 35.7318 14.5465 35.7744L14.3866 35.9681L15.0287 36.537L14.7631 36.8585L14.0848 36.3334L13.9327 36.5176C13.9038 36.5525 13.8869 36.584 13.882 36.612C13.8772 36.6412 13.88 36.6682 13.8905 36.6929C13.9016 36.7182 13.9184 36.74 13.9408 36.7584L14.5942 37.2982L14.3112 37.6406C14.2356 37.591 14.1526 37.5342 14.0621 37.4701C13.9722 37.4066 13.8824 37.3399 13.7926 37.27C13.7039 37.1999 13.6193 37.1333 13.5389 37.07Z" fill="black"/>
<path d="M15.196 38.2424L14.729 37.9626L16.49 36.3697L17.0567 36.7094L16.4821 39.0133L16.012 38.7316L16.1246 38.3173L15.506 37.9465L15.196 38.2424ZM16.5367 36.9271L15.8546 37.6031L16.2632 37.8479L16.5367 36.9271Z" fill="black"/>
<path d="M17.4954 39.4676L17.0076 39.2616L17.8916 37.1692L18.7715 37.5408C18.8596 37.578 18.9362 37.6234 19.0014 37.6769C19.0661 37.7293 19.1153 37.793 19.149 37.8682C19.1826 37.9433 19.1963 38.0318 19.1898 38.134C19.1837 38.2352 19.1521 38.3536 19.095 38.4887C19.0561 38.5806 19.0146 38.6557 18.9702 38.714C18.9262 38.7715 18.8804 38.8163 18.833 38.8481C18.7864 38.8802 18.7387 38.9027 18.6904 38.9155C18.642 38.9282 18.5936 38.9369 18.5452 38.9414L18.5724 39.9227L18.0767 39.7132L18.0776 38.8366C18.0587 38.8285 18.0376 38.8192 18.0143 38.8085C17.9914 38.797 17.9689 38.7866 17.947 38.7773C17.9242 38.7677 17.901 38.7578 17.8774 38.748C17.8538 38.738 17.8318 38.7287 17.8114 38.72L17.4954 39.4676ZM18.1946 37.8128L17.9741 38.3348L18.2784 38.4634C18.3126 38.4778 18.3445 38.4859 18.3742 38.4877C18.4043 38.4906 18.4333 38.4854 18.4613 38.4721C18.4889 38.4578 18.5146 38.436 18.5387 38.4068C18.5622 38.3765 18.5846 38.3363 18.6058 38.2861C18.6272 38.2352 18.6406 38.1911 18.6455 38.1538C18.6494 38.1169 18.646 38.086 18.6352 38.0608C18.6239 38.0345 18.6067 38.0116 18.5836 37.992C18.5612 37.9727 18.533 37.9559 18.4988 37.9414L18.1946 37.8128Z" fill="black"/>
<path d="M19.6325 40.2484L19.126 40.0937L19.7894 37.9212L20.2958 38.0759L19.6325 40.2484Z" fill="black"/>
<path d="M20.7173 40.4765L20.1811 40.382L21.2563 38.265L21.907 38.3796L22.194 40.7366L21.6542 40.6415L21.6114 40.2144L20.9011 40.0892L20.7173 40.4765ZM21.4992 38.7688L21.1039 39.6438L21.573 39.7265L21.4992 38.7688Z" fill="black"/>
<path d="M25.067 40.7716L24.407 40.8L23.6183 38.5603L24.1658 38.5368L24.7148 40.2133L25.1189 38.4958L25.6603 38.4724L25.067 40.7716Z" fill="black"/>
<path d="M26.6183 40.5979L26.0834 40.6996L26.3393 38.3388L26.9884 38.2157L28.0914 40.3183L27.553 40.4206L27.3617 40.0362L26.653 40.1707L26.6183 40.5979ZM26.7449 38.724L26.685 39.6824L27.153 39.5935L26.7449 38.724Z" fill="black"/>
<path d="M29.1584 39.9775L28.6602 40.1494L27.9198 38.002L28.3163 37.8652L29.5866 38.8812L29.1385 37.5817L29.6392 37.409L30.3796 39.5566L29.9796 39.6944L28.7116 38.6816L29.1584 39.9775Z" fill="black"/>
<path d="M31.605 38.9566C31.4803 39.0224 31.3649 39.0512 31.2588 39.0428C31.1534 39.0341 31.0544 38.9959 30.9618 38.9284C30.8692 38.8607 30.7816 38.7698 30.699 38.6558C30.6152 38.5415 30.5348 38.4114 30.4578 38.2655C30.3746 38.1079 30.3098 37.9607 30.2636 37.8238C30.2182 37.6864 30.1988 37.559 30.2059 37.4414C30.2125 37.3232 30.2536 37.2138 30.3292 37.1134C30.4037 37.0124 30.5204 36.92 30.6794 36.8359C30.7787 36.7835 30.8687 36.7411 30.9494 36.7087C31.0302 36.6763 31.1084 36.6494 31.1839 36.6282C31.2587 36.6073 31.3363 36.5874 31.4167 36.5683L31.608 36.9304C31.5652 36.9464 31.5116 36.9678 31.4472 36.9943C31.3832 37.0216 31.3118 37.0532 31.233 37.0892C31.1542 37.1254 31.0723 37.1657 30.9877 37.2104C30.879 37.2678 30.8068 37.3289 30.771 37.3934C30.7349 37.4592 30.7313 37.5408 30.7604 37.6384C30.7888 37.7363 30.8441 37.8629 30.926 38.0182C30.9896 38.1385 31.0465 38.2339 31.0968 38.3044C31.1464 38.3752 31.194 38.4256 31.2396 38.4556C31.2857 38.4863 31.3326 38.4992 31.3805 38.4944C31.4276 38.4901 31.4782 38.4737 31.5322 38.4451C31.6021 38.4082 31.6644 38.3696 31.7189 38.3298C31.7722 38.2895 31.8137 38.2559 31.8433 38.229L31.6746 37.9096L31.3585 38.0766L31.1626 37.7057C31.1993 37.6798 31.2432 37.651 31.2946 37.6192C31.3459 37.5874 31.4003 37.5545 31.4579 37.5204C31.5146 37.4867 31.5676 37.4569 31.6164 37.4311C31.6792 37.398 31.735 37.3694 31.7838 37.3454C31.8323 37.3207 31.8773 37.2998 31.9186 37.2827L32.5345 38.4488L32.1822 38.635L32.0483 38.5322C32.0164 38.5883 31.9627 38.6581 31.8875 38.7416C31.813 38.8248 31.7188 38.8964 31.605 38.9566Z" fill="black"/>
<path d="M33.8588 37.5316C33.7573 37.6064 33.6568 37.6682 33.5574 37.717C33.4568 37.7654 33.3566 37.7922 33.2568 37.7971C33.157 37.802 33.059 37.7784 32.9632 37.7262C32.8673 37.674 32.7732 37.5854 32.6813 37.4608L31.7729 36.2291L32.199 35.9147L33.106 37.1444C33.1462 37.1989 33.1903 37.2338 33.2387 37.2494C33.2875 37.2656 33.3402 37.2648 33.3966 37.2467C33.4535 37.2293 33.5138 37.1971 33.5776 37.1502C33.64 37.1041 33.6878 37.0566 33.7212 37.0073C33.7558 36.9582 33.7722 36.9082 33.7704 36.8573C33.7698 36.8065 33.7494 36.7538 33.7093 36.6994L32.8024 35.4697L33.2286 35.1554L34.137 36.3871C34.229 36.5119 34.2862 36.6276 34.3084 36.7342C34.33 36.8412 34.3232 36.942 34.2883 37.0363C34.2541 37.1303 34.1996 37.2175 34.1249 37.2983C34.0496 37.3783 33.961 37.4561 33.8588 37.5316Z" fill="black"/>
<path d="M35.3065 36.2824L34.9229 36.6686L33.7985 34.5773L34.2641 34.1084L36.3631 35.2184L35.977 35.6074L35.6018 35.3987L35.0935 35.9105L35.3065 36.2824ZM34.3508 34.6655L34.8436 35.4896L35.1793 35.1516L34.3508 34.6655Z" fill="black"/>
<path d="M37.047 34.3432L36.7301 34.7675L34.9102 33.4081L35.4817 32.6429C35.539 32.5662 35.6014 32.5027 35.6689 32.4522C35.7353 32.4019 35.809 32.3694 35.8898 32.3548C35.9708 32.3401 36.0601 32.348 36.1577 32.3788C36.2545 32.4089 36.3618 32.4679 36.4794 32.5558C36.5593 32.6155 36.6223 32.6738 36.6684 32.7308C36.7138 32.7874 36.7462 32.8424 36.7657 32.8962C36.7858 32.9492 36.7962 33.0008 36.7969 33.0508C36.7976 33.1008 36.7945 33.1499 36.7873 33.198L37.7466 33.4064L37.4245 33.8376L36.5737 33.6268C36.5614 33.6433 36.5472 33.6616 36.5312 33.6816C36.5146 33.701 36.4992 33.7205 36.4848 33.7396C36.47 33.7594 36.4549 33.7795 36.4397 33.8C36.4243 33.8206 36.41 33.8396 36.3967 33.8575L37.047 34.3432ZM35.6076 33.2682L36.0617 33.6073L36.2593 33.3426C36.2815 33.3128 36.2971 33.2838 36.3059 33.2554C36.3158 33.2268 36.3178 33.1974 36.3116 33.167C36.3043 33.1369 36.2893 33.1067 36.2668 33.0763C36.243 33.0462 36.2093 33.0149 36.1656 32.9822C36.1213 32.9491 36.0817 32.9257 36.0467 32.912C36.0119 32.8994 35.9809 32.8954 35.9538 32.8998C35.9256 32.9045 35.8992 32.9156 35.8747 32.9334C35.8507 32.9504 35.8276 32.9738 35.8054 33.0035L35.6076 33.2682Z" fill="black"/>
<path d="M38.5246 32.0146L38.0554 32.8776L36.0598 31.7926L36.529 30.9296C36.6058 30.7883 36.6942 30.6862 36.7942 30.6232C36.8934 30.5598 37.0027 30.5254 37.1221 30.5198C37.2404 30.5147 37.3664 30.5348 37.5004 30.5804C37.6339 30.6248 37.7724 30.6862 37.9159 30.764C38.1449 30.8885 38.3184 31.0166 38.4365 31.1485C38.5549 31.2796 38.6207 31.4167 38.6338 31.56C38.6477 31.7036 38.6112 31.8552 38.5246 32.0146ZM36.7301 31.5544L37.892 32.186L38.0834 31.834C38.1233 31.7608 38.1341 31.6915 38.1161 31.6264C38.0976 31.5619 38.0504 31.4968 37.9744 31.431C37.8984 31.3652 37.7952 31.297 37.6648 31.226C37.5408 31.1587 37.4368 31.111 37.3525 31.083C37.2679 31.0538 37.1988 31.0411 37.145 31.0448C37.0907 31.0481 37.0463 31.0634 37.0117 31.0907C36.9768 31.1186 36.9467 31.1558 36.9215 31.2022L36.7301 31.5544Z" fill="black"/>
<path d="M39.2861 30.3227L39.1039 30.8357L37.1948 29.4239L37.4159 28.8012L39.7879 28.9097L39.6044 29.4262L39.1762 29.3975L38.9347 30.0772L39.2861 30.3227ZM37.732 29.268L38.5292 29.8032L38.6886 29.3543L37.732 29.268Z" fill="black"/>
<path d="M7.53528 24.3271C7.53528 23.8435 7.92732 23.4516 8.4108 23.4515C8.8944 23.4515 9.28632 23.8435 9.28632 24.3271C9.28632 24.8107 8.89428 25.2026 8.4108 25.2026C7.9272 25.2026 7.53528 24.8106 7.53528 24.3271Z" fill="black"/>
<path d="M38.7137 24.3271C38.7137 23.8435 39.1057 23.4516 39.5892 23.4515C40.0728 23.4515 40.4647 23.8435 40.4647 24.3271C40.4647 24.8107 40.0727 25.2026 39.5892 25.2026C39.1056 25.2026 38.7137 24.8106 38.7137 24.3271Z" fill="black"/>
</g>
</g>
</g>
</g>
</g>
</g>
<defs>
<clipPath id="clip0_3_187">
<rect width="33.6" height="33.6" fill="white" transform="translate(7.2 7.2)"/>
</clipPath>
<clipPath id="clip1_3_187">
<rect width="33.6" height="33.6" fill="white" transform="translate(7.2 7.2)"/>
</clipPath>
<clipPath id="clip2_3_187">
<rect width="33.6" height="33.6" fill="white" transform="translate(7.2 7.2)"/>
</clipPath>
<clipPath id="clip3_3_187">
<rect width="33.6" height="33.6" fill="white" transform="translate(7.2 7.2)"/>
</clipPath>
<clipPath id="clip4_3_187">
<rect width="33.6" height="33.6" fill="white" transform="translate(7.2 7.2)"/>
</clipPath>
<clipPath id="clip5_3_187">
<rect width="33.6" height="33.6" fill="white" transform="translate(7.2 7.2)"/>
</clipPath>
<clipPath id="clip6_3_187">
<rect width="12.6175" height="15.8392" fill="white" transform="translate(17.6913 16.0804)"/>
</clipPath>
<clipPath id="clip7_3_187">
<rect width="12.6175" height="15.8392" fill="white" transform="translate(17.6913 16.0804)"/>
</clipPath>
</defs>
</svg>
